<svg width="32" height="32" viewBox="0 0 32 32" fill="none" xmlns="http://www.w3.org/2000/svg">
<path d="M18.0291 2.74743L18.0309 2.74529C18.9863 1.62186 20.5318 0.764284 21.8756 0.549133C21.9018 2.09833 21.2525 3.63457 20.2993 4.79231C19.3421 5.9466 17.8679 6.83337 16.4156 6.88749C16.3749 5.36038 17.1352 3.78666 18.0291 2.74743ZM21.8745 31.4594L21.8731 31.4595C20.9421 31.4764 20.3318 31.2113 19.604 30.8952L19.5687 30.8799C18.8105 30.5507 17.9515 30.1887 16.626 30.1887C15.3061 30.1887 14.4314 30.5284 13.6605 30.8563C13.6114 30.8771 13.563 30.8978 13.5151 30.9183C12.8177 31.2164 12.2285 31.4683 11.3854 31.4984L11.3851 31.4984C10.5282 31.5295 9.73059 31.104 8.94797 30.3678C8.16443 29.6308 7.4584 28.6417 6.78439 27.6625L6.78414 27.6621C5.45669 25.7372 4.27695 22.9982 3.77592 20.1464C3.27419 17.2906 3.46314 14.385 4.79002 12.076L4.79053 12.0751C6.10227 9.78179 8.43918 8.34814 10.9569 8.3134L10.9569 8.31341L10.9604 8.31334C11.8787 8.29426 12.7965 8.60579 13.6967 8.95835C13.8103 9.00282 13.9247 9.0484 14.039 9.09393C14.363 9.22298 14.6862 9.35169 14.9865 9.45408C15.3923 9.59243 15.814 9.70413 16.2141 9.70413C16.6225 9.70413 17.0776 9.56807 17.5174 9.40989C17.7577 9.32346 18.0339 9.2144 18.3167 9.10273C18.5389 9.01496 18.7652 8.92559 18.9814 8.84432C20.028 8.45092 21.1459 8.12286 22.2612 8.23876L22.2774 8.24044L22.2936 8.24107C23.22 8.27676 25.6967 8.59804 27.4366 10.7828C27.3738 10.8285 27.3061 10.8793 27.2342 10.9352C26.8796 11.2111 26.4227 11.6138 25.9715 12.1486C25.0674 13.2201 24.179 14.8323 24.1983 17.0087L24.1983 17.0094C24.2246 19.5924 25.3611 21.3282 26.4963 22.4113C27.2067 23.0891 27.9183 23.5138 28.3634 23.7407C28.1001 24.4976 27.4788 26.0996 26.3598 27.7456C25.6866 28.7286 25.0385 29.6564 24.3019 30.3478C23.5753 31.0297 22.8 31.4453 21.8745 31.4594ZM21.8822 31.9594C20.8419 31.9783 20.1458 31.6758 19.422 31.3613C18.6633 31.0316 17.8741 30.6887 16.626 30.6887C15.3216 30.6887 14.4957 31.0423 13.7014 31.3825C13.0098 31.6786 12.3421 31.9645 11.4033 31.9981L21.8822 31.9594Z" fill="white" stroke="#214164"/>
</svg>
