<svg width="65" height="65" viewBox="0 0 65 65" fill="none" xmlns="http://www.w3.org/2000/svg">
<path d="M35.851 4.91843C38.191 2.16674 42.1372 0.129958 45.3791 0C45.807 3.81066 44.2904 7.61873 42.0153 10.3813C39.7429 13.1222 36.0486 15.2727 32.4031 14.9856C31.9184 11.2426 33.7521 7.35868 35.851 4.91843ZM54.3818 56.9305C51.6681 60.8929 48.8756 64.8498 44.4475 64.9175C40.1195 64.9961 38.7247 62.3364 33.771 62.3364C28.8146 62.3364 27.26 64.8498 23.1622 64.9961C18.9046 65.1505 15.6709 60.7276 12.9435 56.7652C7.38321 48.7024 3.13646 33.9632 8.8485 24.0234C11.6788 19.0752 16.7435 15.9469 22.2415 15.8711C26.4151 15.7843 30.3695 18.6959 32.9343 18.6959C35.4828 18.6959 40.2929 15.2021 45.3224 15.7248C47.4322 15.8061 53.3664 16.5725 57.177 22.1545C56.871 22.3494 50.0946 26.3037 50.1677 34.5399C50.2679 44.3768 58.7777 47.6513 58.8643 47.681C58.7776 47.9087 57.4938 52.3533 54.3818 56.9305Z" fill="#214164"/>
</svg>
