<svg width="87" height="87" viewBox="0 0 87 87" fill="none" xmlns="http://www.w3.org/2000/svg">
<g clip-path="url(#clip0)">
<path d="M35.4592 64.2637V70.1446C35.4592 72.0688 34.5067 73.8557 32.9416 74.8659L29.1621 77.6451H57.5736L53.7942 74.8659C52.229 73.8557 51.2766 72.0688 51.2766 70.1446V64.2637C46.0753 64.2637 40.6604 64.2637 35.4592 64.2637Z" fill="#C7D2E5"/>
<path d="M41.3381 70.1446V64.2637C39.3634 64.2637 37.3967 64.2637 35.4592 64.2637V70.1446C35.4592 72.0688 34.5067 73.8557 32.9416 74.8659L29.1621 77.6451H35.041L38.8205 74.8659C40.3849 73.8557 41.3381 72.0688 41.3381 70.1446Z" fill="#BAC7DB"/>
<path d="M60.2188 77.3052H26.5171C25.5785 77.3052 24.8179 78.0665 24.8179 79.0044V80.9074C24.8179 81.8453 25.5785 82.6066 26.5171 82.6066H60.2181C61.1567 82.6066 61.9173 81.8453 61.9173 80.9074V79.0044C61.9173 78.0658 61.1567 77.3052 60.2188 77.3052Z" fill="#E4EAF8"/>
<path d="M60.2191 79.3059H26.5174C25.8284 79.3059 25.237 78.8951 24.9702 78.3057C24.8739 78.5194 24.8188 78.755 24.8188 79.0046V80.9069C24.8188 81.8455 25.5795 82.6062 26.5174 82.6062H60.2191C61.157 82.6062 61.9183 81.8455 61.9183 80.9069V79.0046C61.9183 78.755 61.8632 78.5194 61.7663 78.3057C61.5001 78.8951 60.9081 79.3059 60.2191 79.3059Z" fill="#C7D2E5"/>
<path d="M80.6967 4.68408H6.03979C3.33962 4.68408 1.14258 6.88046 1.14258 9.58129V60.2168C1.14258 62.917 3.33896 65.114 6.03979 65.114H80.6967C83.3969 65.114 85.5939 62.917 85.5939 60.2168V9.58129C85.5939 6.88046 83.3969 4.68408 80.6967 4.68408Z" fill="#C7D2E5"/>
<path d="M6.44335 60.2161V9.58129C6.44335 6.88112 8.64039 4.68408 11.3406 4.68408H6.03979C3.33962 4.68408 1.14258 6.88046 1.14258 9.58129V60.2168C1.14258 62.917 3.33895 65.114 6.03979 65.114H11.3406C8.64039 65.1133 6.44335 62.917 6.44335 60.2161Z" fill="#BAC7DB"/>
<path d="M6.44336 15.9468V59.1077C6.44336 59.4973 6.75864 59.8126 7.14827 59.8126H79.5882C79.9772 59.8126 80.2932 59.4973 80.2932 59.1077C80.2932 57.9667 80.2932 28.3883 80.2932 15.9468H6.44336Z" fill="#E4EAF8"/>
<path d="M11.5417 59.1083V15.9468H6.44336V59.1077C6.44336 59.4973 6.75931 59.8126 7.14827 59.8126H12.2459C11.857 59.8126 11.5417 59.4973 11.5417 59.1083Z" fill="#C7D2E5"/>
<path d="M79.5882 9.98486H7.14827C6.75931 9.98486 6.44336 10.3001 6.44336 10.6891V16.2873H80.2932C80.2932 13.3375 80.2932 11.2825 80.2932 10.6891C80.2932 10.3001 79.9772 9.98486 79.5882 9.98486Z" fill="#4688B0"/>
<path d="M14.0958 9.98486H7.14827C6.75931 9.98486 6.44336 10.3001 6.44336 10.6891V16.2873H14.0958V9.98486Z" fill="#4688B0"/>
<path d="M12.2459 9.98486H7.14827C6.75931 9.98486 6.44336 10.3001 6.44336 10.6891V16.2873H11.5417V10.6891C11.5417 10.3001 11.857 9.98486 12.2459 9.98486Z" fill="#214164"/>
<path d="M22.6073 39.0381H13.4401C12.9748 39.0381 12.5972 39.4158 12.5972 39.8811V53.587C12.5972 54.0523 12.9748 54.4293 13.4401 54.4293H22.6073C23.0733 54.4293 23.4503 54.0523 23.4503 53.587V39.8811C23.4503 39.4158 23.0733 39.0381 22.6073 39.0381Z" fill="#99E9DF"/>
<path d="M39.5033 39.0381H30.3361C29.8708 39.0381 29.4932 39.4158 29.4932 39.8811V53.587C29.4932 54.0523 29.8702 54.4293 30.3361 54.4293H39.5033C39.9686 54.4293 40.3463 54.0523 40.3463 53.587V39.8811C40.3463 39.4158 39.9686 39.0381 39.5033 39.0381Z" fill="#99E9DF"/>
<path d="M56.3993 39.0381H47.2321C46.7668 39.0381 46.3892 39.4158 46.3892 39.8811V53.587C46.3892 54.0523 46.7662 54.4293 47.2321 54.4293H56.3993C56.8646 54.4293 57.2423 54.0523 57.2423 53.587V39.8811C57.2423 39.4158 56.8646 39.0381 56.3993 39.0381Z" fill="#99E9DF"/>
<path d="M73.2953 39.0381H64.1281C63.6622 39.0381 63.2852 39.4158 63.2852 39.8811V53.587C63.2852 54.0523 63.6622 54.4293 64.1281 54.4293H73.2953C73.7606 54.4293 74.1376 54.0523 74.1376 53.587V39.8811C74.1376 39.4158 73.7606 39.0381 73.2953 39.0381Z" fill="#99E9DF"/>
<path d="M17.5481 53.587V39.8811C17.5481 39.4158 17.9252 39.0381 18.3911 39.0381H13.4401C12.9748 39.0381 12.5972 39.4158 12.5972 39.8811V53.587C12.5972 54.0523 12.9748 54.4293 13.4401 54.4293H18.3911C17.9252 54.4293 17.5481 54.0523 17.5481 53.587Z" fill="#57C3B6"/>
<path d="M34.444 53.587V39.8811C34.444 39.4158 34.8216 39.0381 35.2869 39.0381H30.3366C29.8707 39.0381 29.4937 39.4158 29.4937 39.8811V53.587C29.4937 54.0523 29.8707 54.4293 30.3366 54.4293H35.2869C34.8216 54.4293 34.444 54.0523 34.444 53.587Z" fill="#57C3B6"/>
<path d="M51.3399 53.587V39.8811C51.3399 39.4158 51.7176 39.0381 52.1829 39.0381H47.2326C46.7667 39.0381 46.3896 39.4158 46.3896 39.8811V53.587C46.3896 54.0523 46.7667 54.4293 47.2326 54.4293H52.1829C51.7176 54.4293 51.3399 54.0523 51.3399 53.587Z" fill="#57C3B6"/>
<path d="M68.2355 53.587V39.8811C68.2355 39.4158 68.6125 39.0381 69.0784 39.0381H64.1281C63.6622 39.0381 63.2852 39.4158 63.2852 39.8811V53.587C63.2852 54.0523 63.6622 54.4293 64.1281 54.4293H69.0784C68.6125 54.4293 68.2355 54.0523 68.2355 53.587Z" fill="#57C3B6"/>
<path d="M73.4048 21.3823C70.8274 21.3823 15.9306 21.3823 13.33 21.3823C12.9257 21.3823 12.5972 21.7102 12.5972 22.1151V33.3486C12.5972 33.7528 12.9257 34.0814 13.33 34.0814H73.4048C73.8097 34.0814 74.1376 33.7528 74.1376 33.3486V22.1151C74.1376 21.7102 73.8097 21.3823 73.4048 21.3823Z" fill="#99E9DF"/>
<path d="M17.5481 33.3486V22.1151C17.5481 21.7102 17.876 21.3823 18.2809 21.3823C15.5522 21.3823 13.7521 21.3823 13.3306 21.3823C12.9257 21.3823 12.5972 21.7102 12.5972 22.1151V33.3486C12.5972 33.7528 12.9257 34.0814 13.3306 34.0814H18.2809C17.876 34.0814 17.5481 33.7528 17.5481 33.3486Z" fill="#57C3B6"/>
<path d="M22.5695 37.7524H13.4024C12.2355 37.7524 11.2856 38.7023 11.2856 39.8698V53.5758C11.2856 54.7427 12.2355 55.6932 13.4024 55.6932H22.5695C23.7371 55.6932 24.6869 54.7427 24.6869 53.5758V39.8698C24.6869 38.7023 23.7371 37.7524 22.5695 37.7524ZM22.1381 53.1437H13.8345V40.3013H22.1381V53.1437Z" fill="#071C33"/>
<path d="M39.4657 37.7524H30.2985C29.131 37.7524 28.1812 38.7023 28.1812 39.8698V53.5758C28.1812 54.7427 29.131 55.6932 30.2985 55.6932H39.4657C40.6333 55.6932 41.5831 54.7427 41.5831 53.5758V39.8698C41.5831 38.7023 40.6333 37.7524 39.4657 37.7524ZM39.0343 53.1437H30.73V40.3013H39.0343V53.1437Z" fill="#071C33"/>
<path d="M56.3617 37.7524H47.1945C46.027 37.7524 45.0771 38.7023 45.0771 39.8698V53.5758C45.0771 54.7427 46.027 55.6932 47.1945 55.6932H56.3617C57.5293 55.6932 58.4791 54.7427 58.4791 53.5758V39.8698C58.4791 38.7023 57.5293 37.7524 56.3617 37.7524ZM55.9303 53.1437H47.626V40.3013H55.9303V53.1437Z" fill="#071C33"/>
<path d="M73.2577 37.7524H64.0905C62.923 37.7524 61.9731 38.7023 61.9731 39.8698V53.5758C61.9731 54.7427 62.923 55.6932 64.0905 55.6932H73.2577C74.4253 55.6932 75.3751 54.7427 75.3751 53.5758V39.8698C75.3751 38.7023 74.4253 37.7524 73.2577 37.7524ZM72.8263 53.1437H64.522V40.3013H72.8263V53.1437Z" fill="#071C33"/>
<path d="M7.11019 8.69922C6.01897 8.69922 5.13086 9.58666 5.13086 10.6779V59.0971C5.13086 60.1883 6.01897 61.0758 7.11019 61.0758H79.5502C80.6414 61.0758 81.5295 60.1876 81.5295 59.0971C81.5295 56.9425 81.5295 14.8954 81.5295 10.6779C81.5295 9.58666 80.6414 8.69922 79.5502 8.69922C76.5539 8.69922 10.1137 8.69922 7.11019 8.69922ZM78.9807 15.0009H15.3322V11.2481H78.9807V15.0009ZM7.67969 11.2481H12.7833V15.0009H7.67969V11.2481ZM7.67969 58.5269V17.5504H78.9807V58.5269H7.67969Z" fill="#071C33"/>
<path d="M73.367 20.0967H46.3036C45.5993 20.0967 45.0291 20.6668 45.0291 21.3711C45.0291 22.0753 45.5993 22.6455 46.3036 22.6455H72.8254V32.7957H13.8345V22.6455H40.3563C41.0599 22.6455 41.6307 22.0753 41.6307 21.3711C41.6307 20.6668 41.0599 20.0967 40.3563 20.0967H13.2929C12.1857 20.0967 11.2856 20.9974 11.2856 22.1039V33.3373C11.2856 34.4445 12.1857 35.3445 13.2929 35.3445H73.3677C74.4741 35.3445 75.3749 34.4445 75.3749 33.3373V22.1039C75.3749 20.9967 74.4741 20.0967 73.367 20.0967Z" fill="#071C33"/>
<path d="M80.6586 3.39844H6.00171C2.59862 3.39844 -0.169922 6.16697 -0.169922 9.57007V60.2056C-0.169922 63.6087 2.59862 66.3772 6.00171 66.3772H34.1471V70.1334C34.1471 71.6149 33.4063 73.0134 32.2129 73.7834L28.7494 76.0196H26.4793C24.8398 76.0196 23.5057 77.3538 23.5057 78.9932V80.8956C23.5057 82.5357 24.8398 83.8692 26.4793 83.8692H60.181C61.8205 83.8692 63.1546 82.5357 63.1546 80.8956V78.9932C63.1546 77.3538 61.8205 76.0196 60.181 76.0196H57.9109L54.4475 73.7834C53.254 73.0134 52.5133 71.6149 52.5133 70.1334V66.3772H80.6586C84.0617 66.3772 86.8302 63.6087 86.8302 60.2056V38.9062C86.8302 38.2026 86.2594 37.6318 85.5558 37.6318C84.8516 37.6318 84.2814 38.2026 84.2814 38.9062V60.2056C84.2814 62.2028 82.6559 63.8277 80.6586 63.8277C78.7138 63.8277 8.02484 63.8277 6.00171 63.8277C4.00446 63.8277 2.37891 62.2028 2.37891 60.2056V9.57007C2.37891 7.57215 4.00446 5.94727 6.00171 5.94727H80.6586C82.6559 5.94727 84.2814 7.57215 84.2814 9.57007V32.9589C84.2814 33.6625 84.8516 34.2333 85.5558 34.2333C86.2594 34.2333 86.8302 33.6625 86.8302 32.9589V9.57007C86.8302 6.16697 84.0617 3.39844 80.6586 3.39844ZM60.6058 78.9932V80.8956C60.6058 81.1299 60.4153 81.3204 60.181 81.3204H26.4793C26.2457 81.3204 26.0552 81.1299 26.0552 80.8956V78.9932C26.0552 78.7589 26.2457 78.5684 26.4793 78.5684H60.181C60.4146 78.5684 60.6058 78.7596 60.6058 78.9932ZM49.9644 66.3772V70.1334C49.9644 72.4074 50.9926 74.5866 53.2115 76.0196H33.4488C35.677 74.5806 36.6959 72.3935 36.6959 70.1334V66.3772H49.9644Z" fill="#071C33"/>
</g>
<defs>
<clipPath id="clip0">
<rect width="87" height="87" fill="white"/>
</clipPath>
</defs>
</svg>
