<svg width="87" height="87" viewBox="0 0 87 87" fill="none" xmlns="http://www.w3.org/2000/svg">
<path d="M80.2509 48.3433C80.0862 46.4295 79.0628 44.7535 77.5709 43.6239L77.9923 41.83C80.1525 32.5526 78.265 20.8875 72.1048 18.982C71.036 18.6513 70.0401 18.568 69.1161 18.7009L69.2449 17.7954C69.5701 15.7898 69.294 14.5776 68.5943 12.8566C67.3328 9.75403 64.6166 7.343 61.306 6.83477C59.8688 6.61421 58.4572 6.72619 57.139 7.11514L56.7318 5.84701C55.7806 3.11212 53.2 1.27441 50.3108 1.27441C47.5831 1.27441 45.2246 2.88663 44.1382 5.20811C43.8844 5.75067 43.1163 5.75067 42.8623 5.20811C41.776 2.88663 39.4175 1.27441 36.6897 1.27441C33.8033 1.27441 31.224 3.11008 30.2702 5.84157L29.823 7.09883C28.9674 6.85108 28.0713 6.72279 27.1549 6.72279C21.898 6.72279 17.6201 11.0001 17.6201 16.2576C17.6201 16.6614 17.6454 17.0664 17.6959 17.4615L17.6931 17.4868L17.8605 18.6967C16.9434 18.5691 15.9559 18.6545 14.8971 18.982C8.76883 20.8768 6.86265 32.4987 8.98565 41.7442L9.38803 43.5685C7.77428 44.815 6.72314 46.7562 6.72314 48.9484C6.72314 51.6913 8.35524 54.1548 10.8827 55.2236C9.9435 56.5884 9.44733 58.1865 9.44733 59.8453C9.44733 63.8871 12.3989 67.2434 16.258 67.895V68.8165C16.258 73.2642 18.7113 77.4664 22.759 79.31C25.6213 80.6137 28.5843 80.5224 31.1673 79.4962L31.3277 80.51C31.7773 83.4836 34.3752 85.7258 37.3708 85.7258C39.785 85.7258 41.8776 84.3229 42.8764 82.2896C43.1226 81.7883 43.8781 81.7883 44.1243 82.2896C45.1229 84.3231 47.2155 85.7258 49.63 85.7258C52.6255 85.7258 55.2234 83.4836 55.6731 80.51L55.8425 79.5C58.6824 80.6247 61.9838 80.622 65.09 78.873C68.6607 76.8625 70.7429 72.9536 70.7429 68.8557V67.8911C74.2032 67.3181 77.0207 64.4436 77.4803 60.9494C77.7464 58.923 77.2621 56.8897 76.1182 55.2236C78.8462 54.069 80.5063 51.3042 80.2509 48.3433Z" fill="#EDEBED"/>
<path d="M51.6732 58.4828H35.3277C31.5663 58.4828 28.5171 55.4336 28.5171 51.6722V35.3267C28.5171 31.5654 31.5663 28.5161 35.3277 28.5161H51.6732C55.4346 28.5161 58.4838 31.5654 58.4838 35.3267V51.6722C58.4837 55.4338 55.4344 58.4828 51.6732 58.4828Z" fill="#EBEBEB"/>
<path d="M34.3604 9.44455C34.7368 9.44455 35.1134 9.2889 35.382 8.98373C35.8795 8.41907 35.825 7.55842 35.261 7.06089C33.9778 5.92904 32.4804 5.09999 30.8763 4.58887C30.6393 4.98343 30.4261 5.39532 30.2702 5.84187L29.823 7.09912C29.7984 7.09199 29.7724 7.08995 29.7476 7.08298C31.1107 7.46751 32.381 8.15247 33.46 9.1042C33.718 9.33223 34.0398 9.44455 34.3604 9.44455Z" fill="#B0B5B5"/>
<path d="M44.0969 5.208C43.8594 5.75056 43.1408 5.75056 42.9032 5.208C42.7189 4.78694 42.4834 4.39934 42.2256 4.03044V83.4229C42.49 83.0716 42.7286 82.6976 42.9163 82.2893C43.1466 81.7881 43.8534 81.7881 44.0839 82.2893C44.2714 82.6976 44.5102 83.0716 44.7746 83.4229V4.03027C44.5168 4.39934 44.2813 4.78677 44.0969 5.208Z" fill="#DBD9DC"/>
<path d="M13.5336 39.4136C11.8006 39.4136 10.1789 39.8858 8.77686 40.6973C8.84465 41.0472 8.90668 41.4001 8.98569 41.7441L9.40115 43.6006C10.5505 42.7048 11.9666 42.1378 13.5336 42.1378C14.2866 42.1378 14.8957 41.5279 14.8957 40.7757C14.8957 40.0234 14.2866 39.4136 13.5336 39.4136Z" fill="#B0B5B5"/>
<path d="M22.2888 66.5533C20.916 67.5116 19.3013 68.0178 17.6199 68.0178C17.155 68.0178 16.7018 67.9698 16.2578 67.8948V68.8163C16.2578 69.4426 16.3185 70.0608 16.4133 70.6713C16.8101 70.7153 17.2118 70.742 17.6199 70.742C19.8613 70.742 22.0149 70.0662 23.8479 68.7879C24.465 68.357 24.6154 67.5082 24.1857 66.8911C23.7561 66.2739 22.9087 66.1217 22.2888 66.5533Z" fill="#B0B5B5"/>
<path d="M35.6306 76.2286C34.4303 77.7129 32.8876 78.8176 31.1675 79.499L31.3274 80.5098C31.4161 81.0961 31.6089 81.6422 31.8511 82.1601C34.1314 81.3238 36.1729 79.8894 37.7482 77.942C38.2218 77.3568 38.1314 76.4993 37.546 76.0264C36.9594 75.5524 36.1015 75.6448 35.6306 76.2286Z" fill="#B0B5B5"/>
<path d="M17.8589 18.684C18.8276 18.8133 19.7229 19.1426 20.5531 19.6857C23.1947 21.4138 24.6037 25.1998 25.2761 27.5272C25.1641 27.5327 28.819 27.7899 28.2073 27.6547C27.566 25.0345 25.8493 19.9008 22.0549 17.4116C20.7105 16.5307 19.2301 16.0468 17.6366 15.9331C17.633 16.0417 17.6201 16.1481 17.6201 16.2575C17.6201 16.6612 17.6454 17.0663 17.6959 17.4612L17.6932 17.4865L17.8589 18.684Z" fill="#B0B5B5"/>
<path d="M49.8011 76.5396C49.241 77.0417 49.1931 77.9023 49.6947 78.4631C51.1965 80.1405 53.0826 81.3864 55.1541 82.1482C55.3935 81.6336 55.5847 81.0914 55.6727 80.5096L55.8421 79.4996C55.8561 79.505 55.8705 79.5086 55.8844 79.514C54.3096 78.8981 52.8756 77.9316 51.7248 76.6461C51.2231 76.086 50.3611 76.0374 49.8011 76.5396Z" fill="#B0B5B5"/>
<path d="M69.3805 68.0181C68.1647 68.0181 66.9871 67.745 65.9068 67.2361C66.1168 66.9355 63.7287 69.1888 63.7918 69.144C65.4502 70.109 67.4405 70.7423 69.3805 70.7423C69.7898 70.7423 70.1927 70.7153 70.5905 70.6711C70.6816 70.0728 70.7426 69.4682 70.7426 68.8558V67.8951C70.2986 67.9702 69.8456 68.0181 69.3805 68.0181Z" fill="#B0B5B5"/>
<path d="M73.4666 39.4136C72.7137 39.4136 72.1045 40.0234 72.1045 40.7757C72.1045 41.5279 72.7137 42.1378 73.4666 42.1378C75.0207 42.1378 76.4377 42.6815 77.5852 43.5612L77.9919 41.8299C78.0786 41.4574 78.1479 41.0758 78.2217 40.6963C76.82 39.8853 75.1988 39.4136 73.4666 39.4136Z" fill="#B0B5B5"/>
<path d="M50.384 15.0637C50.8633 11.2219 53.612 8.14533 57.1819 7.10473C57.1678 7.10881 57.153 7.11085 57.1389 7.11493L56.7318 5.8468C56.5758 5.39837 56.362 4.98479 56.1243 4.58887C51.681 6.00958 48.2834 9.89349 47.681 14.7271C47.5879 15.4734 48.1174 16.1538 48.8635 16.2469C49.6178 16.3393 50.2922 15.8098 50.384 15.0637Z" fill="#B0B5B5"/>
<path d="M66.0975 19.9018C66.9775 19.1621 67.9801 18.7585 69.1197 18.6741L69.2446 17.7954C69.3583 17.0945 69.3744 16.5047 69.3488 15.9419C67.4696 15.9844 65.7903 16.6003 64.3442 17.8161C63.7682 18.3002 63.6938 19.1597 64.1779 19.7356C64.6622 20.3108 65.5203 20.3852 66.0975 19.9018Z" fill="#B0B5B5"/>
<path d="M51.6727 54.3969H35.3272C33.8227 54.3969 32.603 53.1772 32.603 51.6727V35.3272C32.603 33.8227 33.8227 32.603 35.3272 32.603H51.6727C53.1772 32.603 54.3969 33.8227 54.3969 35.3272V51.6727C54.3969 53.1772 53.1772 54.3969 51.6727 54.3969Z" fill="#57C3B6"/>
<path d="M21.7058 46.2236C23.2101 46.2236 24.4296 45.0041 24.4296 43.4997C24.4296 41.9954 23.2101 40.7759 21.7058 40.7759C20.2014 40.7759 18.9819 41.9954 18.9819 43.4997C18.9819 45.0041 20.2014 46.2236 21.7058 46.2236Z" fill="#99E9DF"/>
<path d="M65.2942 46.2236C66.7985 46.2236 68.018 45.0041 68.018 43.4997C68.018 41.9954 66.7985 40.7759 65.2942 40.7759C63.7898 40.7759 62.5703 41.9954 62.5703 43.4997C62.5703 45.0041 63.7898 46.2236 65.2942 46.2236Z" fill="#99E9DF"/>
<path d="M48.9493 38.0522H38.0522V48.9493H48.9493V38.0522Z" fill="#99E9DF"/>
<path d="M43.5 58.5708C42.7962 58.5708 42.2256 59.1414 42.2256 59.8452V61.2066C42.2256 61.9104 42.7962 62.481 43.5 62.481C44.2038 62.481 44.7744 61.9104 44.7744 61.2066V59.8452C44.7744 59.1414 44.2038 58.5708 43.5 58.5708Z" fill="#071C33"/>
<path d="M81.5211 48.2339C81.3486 46.2361 80.4004 44.449 78.9792 43.1342C80.2774 38.3369 80.5166 32.7812 79.6052 28.112C78.5141 22.5226 75.9842 18.8477 72.4814 17.7645C71.836 17.5648 71.2061 17.4413 70.5942 17.3883C70.6333 17.0133 70.6551 16.6359 70.6551 16.2578C70.6551 10.2976 65.806 5.44854 59.8458 5.44854C59.2234 5.44854 58.6093 5.50411 58.0073 5.60691C56.947 2.30771 53.8508 0 50.3108 0C47.4529 0 44.9384 1.49191 43.5002 3.73641C42.0621 1.49191 39.5476 0 36.6897 0C33.1501 0 30.0541 2.3072 28.9936 5.60606C28.3921 5.50377 27.7782 5.44854 27.1549 5.44854C21.1945 5.44854 16.3456 10.2976 16.3456 16.2578C16.3456 16.6335 16.3657 17.0109 16.4044 17.3842C15.7956 17.4391 15.1674 17.5641 14.5193 17.7645C11.0166 18.8477 8.48659 22.5226 7.39553 28.112C6.48882 32.7574 6.72026 38.2807 8.00096 43.0611C6.43156 44.5369 5.44873 46.6295 5.44873 48.9484C5.44873 51.7196 6.85229 54.2499 9.11921 55.7245C8.49713 57.0027 8.17292 58.4045 8.17292 59.8453C8.17292 64.143 11.0585 67.7769 14.9932 68.9179C14.9875 69.0721 14.9836 69.2262 14.9836 69.38C14.9836 76.0912 20.4437 81.5513 27.1549 81.5513C28.1705 81.5513 29.1712 81.4204 30.1382 81.1756C30.8643 84.5016 33.8304 87 37.3708 87C39.9172 87 42.1675 85.7076 43.5004 83.7443C44.8332 85.7074 47.0833 87 49.6299 87C53.1703 87 56.1366 84.5016 56.8623 81.1759C57.8294 81.4208 58.83 81.5516 59.8456 81.5516C66.5571 81.5516 72.017 76.0915 72.017 69.3803C72.017 69.2277 72.0132 69.0746 72.0075 68.9217C75.5165 67.8957 78.2594 64.7961 78.7439 61.1166C78.9892 59.2528 78.684 57.3828 77.8803 55.7254C80.3535 54.1176 81.7822 51.262 81.5211 48.2339ZM75.6217 54.0499C75.2691 54.1991 75.0023 54.4989 74.895 54.8662C74.7876 55.2336 74.8511 55.6299 75.0681 55.9454C76.0346 57.3515 76.4424 59.0699 76.2168 60.7839C75.8207 63.7933 73.3531 66.2721 70.3494 66.678C68.9936 66.8614 67.6758 66.6637 66.4842 66.1084C66.7797 65.5013 66.9994 64.8565 67.1356 64.1858C67.2758 63.4961 66.8303 62.8232 66.1406 62.6832C65.4507 62.5433 64.778 62.9885 64.638 63.6782C64.4218 64.7423 63.8995 65.7125 63.1277 66.4843C60.9692 68.6428 57.4569 68.6428 55.2984 66.4843C54.8007 65.9866 53.9937 65.9866 53.4962 66.4843C52.9985 66.982 52.9985 67.789 53.4962 68.2867C55.0724 69.8629 57.1427 70.651 59.2132 70.651C61.2837 70.651 63.354 69.8629 64.9302 68.2867C64.9537 68.2632 64.9761 68.2389 64.9992 68.2151C66.3509 68.9222 67.859 69.2911 69.3959 69.2911C69.4192 69.2911 69.4425 69.2901 69.4656 69.2899C69.466 69.32 69.4685 69.35 69.4685 69.3801C69.4685 74.6859 65.1518 79.0026 59.846 79.0026C57.0865 79.0026 54.4557 77.8149 52.6282 75.744C52.1625 75.2163 51.3572 75.166 50.8294 75.6317C50.3016 76.0975 50.2514 76.9027 50.7171 77.4305C51.7718 78.6256 53.0394 79.5849 54.4362 80.2782C54.1031 82.6333 52.0753 84.4512 49.6299 84.4512C46.9528 84.4512 44.7748 82.2731 44.7748 79.596V66.6558C44.7748 65.952 44.2042 65.3813 43.5004 65.3813C42.7965 65.3813 42.2259 65.952 42.2259 66.6558V68.3837C40.5006 66.5382 38.0474 65.3815 35.3276 65.3815C35.2982 65.3815 35.2692 65.3839 35.2399 65.3842V63.9317C35.2399 60.7129 33.3329 57.8023 30.3815 56.5167C29.7362 56.2356 28.9853 56.5308 28.7041 57.1762C28.423 57.8214 28.7182 58.5724 29.3634 58.8535C31.3848 59.734 32.6909 61.7275 32.6909 63.9317V65.7598C30.5735 66.3739 28.711 67.7154 27.455 69.6049C27.0653 70.191 27.2247 70.9821 27.8108 71.3718C28.397 71.7614 29.1878 71.602 29.5776 71.016C30.8619 69.0839 33.0112 67.9305 35.3275 67.9305C39.1312 67.9305 42.2258 71.0251 42.2258 74.8288V79.5962C42.2258 82.2733 40.0477 84.4513 37.3706 84.4513C34.9251 84.4513 32.8972 82.6335 32.5645 80.2786C33.9613 79.5853 35.2291 78.6259 36.2836 77.4308C36.7494 76.9032 36.6991 76.0978 36.1713 75.6321C35.6437 75.1663 34.8381 75.2166 34.3725 75.7444C32.545 77.8152 29.9143 79.003 27.1547 79.003C21.8487 79.003 17.5322 74.6863 17.5322 69.3805C17.5322 69.3506 17.5348 69.3205 17.5349 69.2906C17.5633 69.2907 17.5913 69.2928 17.6199 69.2928C19.4877 69.2928 21.2941 68.7484 22.8438 67.7181C23.43 67.3285 23.5892 66.5375 23.1996 65.9513C22.81 65.3652 22.019 65.2058 21.4328 65.5955C20.3025 66.3468 18.984 66.7439 17.6199 66.7439C13.8162 66.7439 10.7216 63.6493 10.7216 59.8456C10.7216 58.4468 11.1403 57.0982 11.9323 55.9456C12.1491 55.6302 12.2126 55.234 12.1054 54.8664C11.998 54.499 11.7313 54.1991 11.3787 54.0501C9.32465 53.181 7.99739 51.1786 7.99739 48.9487C7.99739 45.8961 10.481 43.4125 13.5336 43.4125C14.2374 43.4125 14.808 42.8419 14.808 42.1381C14.808 41.4343 14.2374 40.8637 13.5336 40.8637C12.3654 40.8637 11.2553 41.1148 10.2514 41.5626C9.25464 37.3465 9.11327 32.6148 9.89695 28.6006C10.7865 24.0431 12.7459 20.9811 15.2723 20.1996C16.8785 19.703 18.2122 19.8253 19.3504 20.5735C21.6795 22.1051 22.6496 25.7953 22.9964 27.6094C21.2156 28.0837 19.5776 29.0084 18.2284 30.3302C17.7256 30.8228 17.7173 31.6296 18.2099 32.1324C18.7023 32.635 19.5093 32.6435 20.0121 32.1509C21.5651 30.6293 23.6181 29.7912 25.7928 29.7912C28.2934 29.7912 30.6356 30.921 32.1987 32.8418C31.6549 33.5249 31.3289 34.3885 31.3289 35.3273V35.4149H27.1549C26.4511 35.4149 25.8805 35.9855 25.8805 36.6894C25.8805 37.3932 26.4511 37.9638 27.1549 37.9638H31.3289V42.2256H25.4956C24.9622 40.644 23.4657 39.5014 21.7063 39.5014C19.5014 39.5014 17.7077 41.2953 17.7077 43.5C17.7077 45.7047 19.5016 47.4986 21.7063 47.4986C23.4657 47.4986 24.9622 46.356 25.4956 44.7744H31.3289V49.0362H27.1549C26.4511 49.0362 25.8805 49.6068 25.8805 50.3106C25.8805 51.0145 26.4511 51.5851 27.1549 51.5851H31.3289V51.6727C31.3289 53.8776 33.1227 55.6713 35.3275 55.6713H51.6727C53.8777 55.6713 55.6713 53.8775 55.6713 51.6727V51.5851H59.8453C60.5491 51.5851 61.1197 51.0145 61.1197 50.3106C61.1197 49.6068 60.5491 49.0362 59.8453 49.0362H55.6717V44.7744H61.5049C62.0383 46.356 63.5348 47.4986 65.2942 47.4986C67.4991 47.4986 69.2928 45.7047 69.2928 43.5C69.2928 41.2953 67.4989 39.5014 65.2942 39.5014C63.5348 39.5014 62.0383 40.644 61.5049 42.2256H55.6717V37.9638H59.8456C60.5495 37.9638 61.1201 37.3932 61.1201 36.6894C61.1201 35.9855 60.5495 35.4149 59.8456 35.4149H55.6717V35.3273C55.6717 33.1224 53.8778 31.3287 51.6731 31.3287H35.3278C34.9913 31.3287 34.6646 31.371 34.3521 31.4495C32.3098 28.8029 29.1595 27.2422 25.793 27.2422C25.7032 27.2422 25.614 27.2465 25.5247 27.2487C25.1286 25.1124 23.9354 20.5429 20.7573 18.4479C20.2143 18.0899 19.6425 17.8207 19.0442 17.6379C18.9308 17.2238 18.8946 16.6221 18.8946 16.2578C18.8946 11.703 22.6003 7.99737 27.1551 7.99737C29.3941 7.99737 31.4901 8.87859 33.057 10.4784C33.5496 10.9814 34.3563 10.9897 34.8591 10.4973C35.3619 10.0048 35.3704 9.19787 34.878 8.69507C33.877 7.67299 32.7103 6.87691 31.4379 6.32789C32.1812 4.10089 34.2863 2.54883 36.6897 2.54883C39.7424 2.54883 42.2259 5.03224 42.2259 8.08505V12.8526C42.2259 16.2807 39.4368 19.0698 36.0087 19.0698C33.9886 19.0698 32.0869 18.0822 30.9215 16.4279C30.5163 15.8525 29.7212 15.7147 29.1459 16.1198C28.5703 16.5251 28.4325 17.3201 28.8378 17.8957C30.4799 20.2268 33.1604 21.6187 36.0087 21.6187C38.4367 21.6187 40.6368 20.626 42.2259 19.0256V27.1549C42.2259 27.8587 42.7965 28.4293 43.5004 28.4293C44.2042 28.4293 44.7748 27.8587 44.7748 27.1549V8.08505C44.7748 5.03241 47.2583 2.54883 50.311 2.54883C52.7154 2.54883 54.8214 4.10225 55.5638 6.33078C54.358 6.85125 53.2454 7.59177 52.2812 8.53654C51.7786 9.02914 51.7703 9.83593 52.2629 10.3387C52.7553 10.8414 53.5623 10.8497 54.0651 10.3571C55.6182 8.83526 57.6712 7.9972 59.8458 7.9972C64.4007 7.9972 68.1062 11.7029 68.1062 16.2576C68.1062 16.7212 68.0673 17.1832 67.9912 17.6369C67.0459 17.9178 66.17 18.4083 65.3839 19.1123C64.8595 19.5818 64.8152 20.3876 65.2849 20.9119C65.7543 21.4362 66.5601 21.4805 67.0843 21.011C68.3397 19.8868 69.8586 19.6212 71.7283 20.1995C74.2547 20.9809 76.2139 24.0429 77.1036 28.6004C77.892 32.6391 77.7435 37.4037 76.7303 41.639C75.6423 41.1427 74.4323 40.8635 73.1646 40.8635C72.4608 40.8635 71.8902 41.4341 71.8902 42.1379C71.8902 42.8417 72.4608 43.4123 73.1646 43.4123C76.1826 43.4123 78.7377 45.6264 78.9817 48.4529C79.1896 50.8624 77.8394 53.1116 75.6217 54.0499ZM53.1229 51.6727C53.1229 52.4722 52.4724 53.1225 51.6731 53.1225H35.3278C34.5283 53.1225 33.878 52.472 33.878 51.6727V35.3274C33.878 34.528 34.5285 33.8777 35.3278 33.8777H51.6731C52.4726 33.8777 53.1229 34.5281 53.1229 35.3274V51.6727ZM23.1563 43.5C23.1563 44.2995 22.5058 44.9498 21.7063 44.9498C20.9069 44.9498 20.2566 44.2993 20.2566 43.5C20.2566 42.7007 20.907 42.0502 21.7063 42.0502C22.506 42.0502 23.1563 42.7005 23.1563 43.5ZM63.8443 43.5C63.8443 42.7005 64.4947 42.0502 65.2942 42.0502C66.0937 42.0502 66.744 42.7007 66.744 43.5C66.744 44.2993 66.0935 44.9498 65.2942 44.9498C64.4947 44.9498 63.8443 44.2995 63.8443 43.5Z" fill="#071C33"/>
<path d="M51.0691 12.3115C50.3948 12.1109 49.6849 12.4949 49.4841 13.1695C49.1869 14.1683 49.0361 15.2074 49.0361 16.258C49.0361 16.9618 49.6067 17.5324 50.3106 17.5324C51.0144 17.5324 51.585 16.9618 51.585 16.258C51.585 15.4537 51.7 14.6594 51.927 13.8966C52.1279 13.222 51.7437 12.5124 51.0691 12.3115Z" fill="#071C33"/>
<path d="M48.9487 36.7773H38.0518C37.3479 36.7773 36.7773 37.3479 36.7773 38.0518V48.9487C36.7773 49.6525 37.3479 50.2231 38.0518 50.2231H48.9487C49.6525 50.2231 50.2231 49.6525 50.2231 48.9487V38.0518C50.2231 37.3478 49.6525 36.7773 48.9487 36.7773ZM47.6743 47.6741H39.3262V39.326H47.6743V47.6741Z" fill="#071C33"/>
</svg>
