<svg width="68" height="32" viewBox="0 0 68 32" fill="none" xmlns="http://www.w3.org/2000/svg">
<path d="M29.8661 0.533203H2.13387C0.957312 0.533203 0 1.49058 0 2.66708V20.2665C0 20.5609 0.238937 20.7998 0.533312 20.7998H31.4666C31.761 20.7998 31.9999 20.5609 31.9999 20.2665V2.66708C32 1.49058 31.0427 0.533203 29.8661 0.533203ZM30.9333 19.7332H1.06669V2.66708C1.06669 2.07827 1.54562 1.59989 2.13387 1.59989H29.8661C30.4544 1.59989 30.9333 2.07827 30.9333 2.66708V19.7332Z" fill="#214164"/>
<path d="M31.4667 19.7334H0.533312C0.238937 19.7334 0 19.9723 0 20.2667V22.9328C0 24.1094 0.957312 25.0667 2.13387 25.0667H29.8661C31.0427 25.0667 32 24.1094 32 22.9328V20.2667C32 19.9723 31.7611 19.7334 31.4667 19.7334ZM30.9333 22.9329C30.9333 23.5217 30.4544 24.0001 29.8661 24.0001H2.13387C1.54562 24.0001 1.06669 23.5217 1.06669 22.9329V20.8001H30.9334V22.9329H30.9333Z" fill="#214164"/>
<path d="M17.5998 21.8667H14.3998C14.1055 21.8667 13.8665 22.1056 13.8665 22.4C13.8665 22.6944 14.1055 22.9333 14.3998 22.9333H17.5998C17.8942 22.9333 18.1331 22.6944 18.1331 22.4C18.1331 22.1056 17.8942 21.8667 17.5998 21.8667Z" fill="#214164"/>
<path d="M22.9333 28.2666H9.06667C8.18455 28.2666 7.46667 28.9845 7.46667 29.8666C7.46667 30.7487 8.18455 31.4666 9.06667 31.4666H22.9334C23.8155 31.4666 24.5334 30.7487 24.5334 29.8666C24.5334 28.9845 23.8154 28.2666 22.9333 28.2666ZM22.9333 30.3999H9.06667C8.7723 30.3999 8.53336 30.1605 8.53336 29.8666C8.53336 29.5727 8.7723 29.3333 9.06667 29.3333H22.9334C23.2277 29.3333 23.4667 29.5727 23.4667 29.8666C23.4667 30.1605 23.2277 30.3999 22.9333 30.3999Z" fill="#214164"/>
<path d="M21.8668 28.2666C20.0972 28.2666 19.2001 27.0106 19.2001 24.5333C19.2001 24.2389 18.9612 24 18.6668 24H13.3335C13.0391 24 12.8002 24.2389 12.8002 24.5333C12.8002 27.0106 11.9031 28.2666 10.1335 28.2666C9.8391 28.2666 9.60016 28.5056 9.60016 28.7999C9.60016 29.0943 9.8391 29.3333 10.1335 29.3333H21.8668C22.1612 29.3333 22.4001 29.0943 22.4001 28.7999C22.4001 28.5056 22.1612 28.2666 21.8668 28.2666ZM12.7313 28.2666C13.3878 27.5392 13.7745 26.4559 13.8523 25.0666H18.1483C18.2257 26.4559 18.6123 27.5392 19.2694 28.2666H12.7313Z" fill="#214164"/>
<path d="M65.8661 0.533203H38.1339C36.9573 0.533203 36 1.49058 36 2.66708V20.2665C36 20.5609 36.2389 20.7998 36.5333 20.7998H67.4666C67.761 20.7998 67.9999 20.5609 67.9999 20.2665V2.66708C68 1.49058 67.0427 0.533203 65.8661 0.533203ZM66.9333 19.7332H37.0667V2.66708C37.0667 2.07827 37.5456 1.59989 38.1339 1.59989H65.8661C66.4544 1.59989 66.9333 2.07827 66.9333 2.66708V19.7332Z" fill="#214164"/>
<path d="M67.4667 19.7334H36.5333C36.2389 19.7334 36 19.9723 36 20.2667V22.9328C36 24.1094 36.9573 25.0667 38.1339 25.0667H65.8661C67.0427 25.0667 68 24.1094 68 22.9328V20.2667C68 19.9723 67.7611 19.7334 67.4667 19.7334ZM66.9333 22.9329C66.9333 23.5217 66.4544 24.0001 65.8661 24.0001H38.1339C37.5456 24.0001 37.0667 23.5217 37.0667 22.9329V20.8001H66.9334V22.9329H66.9333Z" fill="#214164"/>
<path d="M53.5998 21.8667H50.3998C50.1055 21.8667 49.8665 22.1056 49.8665 22.4C49.8665 22.6944 50.1055 22.9333 50.3998 22.9333H53.5998C53.8942 22.9333 54.1331 22.6944 54.1331 22.4C54.1331 22.1056 53.8942 21.8667 53.5998 21.8667Z" fill="#214164"/>
<path d="M58.9333 28.2666H45.0667C44.1845 28.2666 43.4667 28.9845 43.4667 29.8666C43.4667 30.7487 44.1845 31.4666 45.0667 31.4666H58.9334C59.8155 31.4666 60.5334 30.7487 60.5334 29.8666C60.5334 28.9845 59.8154 28.2666 58.9333 28.2666ZM58.9333 30.3999H45.0667C44.7723 30.3999 44.5334 30.1605 44.5334 29.8666C44.5334 29.5727 44.7723 29.3333 45.0667 29.3333H58.9334C59.2277 29.3333 59.4667 29.5727 59.4667 29.8666C59.4667 30.1605 59.2277 30.3999 58.9333 30.3999Z" fill="#214164"/>
<path d="M57.8668 28.2666C56.0972 28.2666 55.2001 27.0106 55.2001 24.5333C55.2001 24.2389 54.9612 24 54.6668 24H49.3335C49.0391 24 48.8002 24.2389 48.8002 24.5333C48.8002 27.0106 47.9031 28.2666 46.1335 28.2666C45.8391 28.2666 45.6002 28.5056 45.6002 28.7999C45.6002 29.0943 45.8391 29.3333 46.1335 29.3333H57.8668C58.1612 29.3333 58.4001 29.0943 58.4001 28.7999C58.4001 28.5056 58.1612 28.2666 57.8668 28.2666ZM48.7313 28.2666C49.3878 27.5392 49.7745 26.4559 49.8523 25.0666H54.1483C54.2257 26.4559 54.6123 27.5392 55.2694 28.2666H48.7313Z" fill="#214164"/>
</svg>
