<svg width="87" height="87" viewBox="0 0 87 87" fill="none" xmlns="http://www.w3.org/2000/svg">
<g clip-path="url(#clip0)">
<path d="M58.4831 63.9317H28.5168C25.5077 63.9317 23.0683 61.4923 23.0683 58.4832V28.5169C23.0683 25.5077 25.5077 23.0684 28.5168 23.0684H58.4833C61.4924 23.0684 63.9318 25.5077 63.9318 28.5169V58.4833C63.9316 61.4923 61.4922 63.9317 58.4831 63.9317Z" fill="#071C33"/>
<path d="M58.4829 59.8454H28.5166C27.7644 59.8454 27.1545 59.2356 27.1545 58.4833V28.5169C27.1545 27.7646 27.7644 27.1548 28.5166 27.1548H58.4831C59.2353 27.1548 59.8451 27.7646 59.8451 28.5169V58.4833C59.8451 59.2356 59.2353 59.8454 58.4829 59.8454Z" fill="#99E9DF"/>
<path d="M6.7228 35.3268C8.22713 35.3268 9.44664 34.1073 9.44664 32.603C9.44664 31.0987 8.22713 29.8792 6.7228 29.8792C5.21847 29.8792 3.99896 31.0987 3.99896 32.603C3.99896 34.1073 5.21847 35.3268 6.7228 35.3268Z" fill="#071C33"/>
<path d="M80.2774 57.121C81.7818 57.121 83.0013 55.9015 83.0013 54.3972C83.0013 52.8928 81.7818 51.6733 80.2774 51.6733C78.7731 51.6733 77.5536 52.8928 77.5536 54.3972C77.5536 55.9015 78.7731 57.121 80.2774 57.121Z" fill="#071C33"/>
<path d="M3.99862 69.3791C5.50295 69.3791 6.72245 68.1596 6.72245 66.6552C6.72245 65.1509 5.50295 63.9314 3.99862 63.9314C2.49428 63.9314 1.27478 65.1509 1.27478 66.6552C1.27478 68.1596 2.49428 69.3791 3.99862 69.3791Z" fill="#071C33"/>
<path d="M83.0014 23.0688C84.5058 23.0688 85.7253 21.8493 85.7253 20.3449C85.7253 18.8406 84.5058 17.6211 83.0014 17.6211C81.4971 17.6211 80.2776 18.8406 80.2776 20.3449C80.2776 21.8493 81.4971 23.0688 83.0014 23.0688Z" fill="#071C33"/>
<path d="M54.3972 9.44694C55.9015 9.44694 57.121 8.22744 57.121 6.72311C57.121 5.21877 55.9015 3.99927 54.3972 3.99927C52.8928 3.99927 51.6733 5.21877 51.6733 6.72311C51.6733 8.22744 52.8928 9.44694 54.3972 9.44694Z" fill="#071C33"/>
<path d="M32.6029 83.0016C34.1072 83.0016 35.3267 81.7821 35.3267 80.2778C35.3267 78.7735 34.1072 77.554 32.6029 77.554C31.0986 77.554 29.8791 78.7735 29.8791 80.2778C29.8791 81.7821 31.0986 83.0016 32.6029 83.0016Z" fill="#071C33"/>
<path d="M20.3445 6.72258C21.8488 6.72258 23.0683 5.50307 23.0683 3.99874C23.0683 2.49441 21.8488 1.2749 20.3445 1.2749C18.8402 1.2749 17.6207 2.49441 17.6207 3.99874C17.6207 5.50307 18.8402 6.72258 20.3445 6.72258Z" fill="#071C33"/>
<path d="M66.6547 85.7255C68.1591 85.7255 69.3786 84.506 69.3786 83.0017C69.3786 81.4973 68.1591 80.2778 66.6547 80.2778C65.1504 80.2778 63.9309 81.4973 63.9309 83.0017C63.9309 84.506 65.1504 85.7255 66.6547 85.7255Z" fill="#071C33"/>
<path d="M43.4999 55.0966C43.8883 55.0966 44.2581 55.2622 44.5162 55.5514C45.4061 56.5491 46.7111 57.121 48.0971 57.121C50.4808 57.121 52.4828 55.4522 52.6544 53.3226C52.6903 52.8789 52.9417 52.4806 53.3261 52.2558C54.8265 51.3799 55.759 49.8514 55.759 48.2673C55.759 47.124 55.2827 46.0133 54.4168 45.1394C53.8914 44.6087 53.8914 43.7533 54.4168 43.2225C55.2827 42.3486 55.759 41.2378 55.759 40.0946C55.759 38.0375 54.2573 36.2244 52.0225 35.5827C51.3268 35.3832 50.9091 34.6727 51.0714 33.9672C51.1326 33.7011 51.1618 33.4843 51.1618 33.2841C51.1618 31.4065 49.4432 29.8789 47.3309 29.8789C46.2388 29.8789 45.1933 30.2986 44.4657 31.0301C43.9522 31.5436 43.0477 31.5436 42.5342 31.0301C41.8066 30.2984 40.7611 29.8789 39.669 29.8789C37.5567 29.8789 35.8381 31.4067 35.8381 33.2841C35.8381 33.5089 35.8635 33.7351 35.9114 33.9551C36.0657 34.6574 35.6494 35.3585 34.9576 35.5573C32.7349 36.1978 31.2411 38.0209 31.2411 40.0946C31.2411 41.0862 31.5976 42.0425 32.272 42.8614C32.6723 43.3489 32.6869 44.0473 32.3053 44.5501C31.6096 45.4692 31.2411 46.5195 31.2411 47.5862C31.2411 49.2861 32.1616 50.915 33.7046 51.9439C34.0798 52.194 34.3071 52.6142 34.3112 53.0658C34.3299 55.3018 36.3904 57.1208 38.903 57.1208C40.2891 57.1208 41.5941 56.5489 42.4839 55.5513C42.7417 55.2621 43.1114 55.0966 43.4999 55.0966Z" fill="#CCF4EF"/>
<path d="M85.7254 42.2257H65.206V39.3261H70.7422C71.4461 39.3261 72.0167 38.7555 72.0167 38.0517C72.0167 37.3479 71.4461 36.7773 70.7422 36.7773H65.206V33.8776H69.0497C70.4816 33.8776 71.8279 33.3201 72.8403 32.3075L81.2218 23.926C81.7679 24.198 82.3733 24.3428 83.0014 24.3428C84.0695 24.3428 85.0736 23.9268 85.8289 23.1717C86.5842 22.4164 87.0001 21.4124 87.0001 20.3442C87.0001 19.2761 86.5842 18.272 85.8289 17.5167C85.0737 16.7614 84.0695 16.3455 83.0014 16.3455C81.9333 16.3455 80.9292 16.7614 80.1739 17.5166C79.4186 18.2719 79.0026 19.2759 79.0026 20.3441C79.0026 20.9721 79.1474 21.5775 79.4194 22.1236L71.0379 30.5052C70.5069 31.0362 69.8007 31.3288 69.0495 31.3288H65.2059V28.5169C65.2059 24.8099 62.1899 21.7942 58.4831 21.7942H55.6713V10.5122C57.2529 9.97887 58.3954 8.48237 58.3954 6.72301C58.3954 4.51811 56.6016 2.72442 54.3968 2.72442C52.1921 2.72442 50.3983 4.51828 50.3983 6.72301C50.3983 8.48237 51.5408 9.9787 53.1224 10.5122V21.794H50.2229V16.2578C50.2229 15.554 49.6523 14.9834 48.9485 14.9834C48.2447 14.9834 47.6741 15.554 47.6741 16.2578V21.794H44.7744V1.27465C44.7744 0.57084 44.2038 0.000244141 43.5 0.000244141C42.7962 0.000244141 42.2256 0.57084 42.2256 1.27465V21.794H39.326V16.2578C39.326 15.554 38.7554 14.9834 38.0516 14.9834C37.3478 14.9834 36.7772 15.554 36.7772 16.2578V21.794H33.8777V17.9506C33.8777 16.5186 33.32 15.1723 32.3074 14.1599L23.923 5.77553C24.6637 4.28005 24.4154 2.41533 23.1718 1.17151C21.6126 -0.387516 19.0758 -0.387346 17.5168 1.17151C15.9578 2.73054 15.9578 5.26729 17.5168 6.82649C18.2964 7.60592 19.3203 7.99572 20.3443 7.99572C20.954 7.99572 21.5626 7.85417 22.1208 7.57771L30.5052 15.9623C31.0364 16.4933 31.3288 17.1995 31.3288 17.9506V21.794H28.517C27.9486 21.794 27.3833 21.8654 26.8368 22.0059C26.1553 22.1812 25.7449 22.8761 25.9203 23.5578C26.0956 24.2395 26.7906 24.6499 27.4721 24.4743C27.8111 24.3872 28.1625 24.3428 28.5168 24.3428H58.4831C60.7847 24.3428 62.6571 26.2153 62.6571 28.5168V58.4832C62.6571 58.8372 62.6129 59.1884 62.5259 59.527C62.3507 60.2088 62.7612 60.9034 63.4428 61.0786C63.5491 61.1059 63.6559 61.119 63.761 61.119C64.3287 61.119 64.8465 60.7369 64.9943 60.1615C65.1347 59.6157 65.2059 59.0509 65.2059 58.483V55.6712H76.4876C77.021 57.2528 78.5175 58.3954 80.2769 58.3954C82.4818 58.3954 84.2754 56.6017 84.2754 54.3968C84.2754 52.1919 82.4816 50.3982 80.2769 50.3982C78.5175 50.3982 77.0212 51.5407 76.4876 53.1224H65.2059V50.2227H70.7421C71.4459 50.2227 72.0165 49.6521 72.0165 48.9483C72.0165 48.2444 71.4459 47.6738 70.7421 47.6738H65.2059V44.7745H85.7254C86.4292 44.7745 86.9998 44.2039 86.9998 43.5001C86.9998 42.7963 86.4292 42.2257 85.7254 42.2257ZM81.9761 19.3191C82.25 19.0452 82.614 18.8945 83.0012 18.8945C83.3885 18.8945 83.7524 19.0452 84.0263 19.3191C84.3003 19.593 84.451 19.957 84.451 20.3442C84.451 20.7315 84.3003 21.0955 84.0263 21.3694C83.7524 21.6433 83.3885 21.794 83.0012 21.794C82.614 21.794 82.25 21.6433 81.9761 21.3694C81.7022 21.0955 81.5514 20.7315 81.5514 20.3442C81.5514 19.957 81.7022 19.5928 81.9761 19.3191ZM54.3968 5.27324C55.1963 5.27324 55.8466 5.9237 55.8466 6.72301C55.8466 7.52232 55.1962 8.17277 54.3968 8.17277C53.5975 8.17277 52.9471 7.52232 52.9471 6.72301C52.9471 5.9237 53.5974 5.27324 54.3968 5.27324ZM19.3188 5.02413C18.7535 4.45881 18.7535 3.53902 19.3188 2.97387C19.6016 2.69112 19.9727 2.54991 20.3441 2.54991C20.7154 2.54991 21.0867 2.69129 21.3693 2.97387C21.9346 3.53919 21.9346 4.45898 21.3693 5.0243C20.8041 5.58929 19.8843 5.58946 19.3188 5.02413ZM80.277 52.9472C81.0765 52.9472 81.7268 53.5976 81.7268 54.3969C81.7268 55.1964 81.0763 55.8467 80.277 55.8467C79.4777 55.8467 78.8273 55.1963 78.8273 54.3969C78.8271 53.5975 79.4776 52.9472 80.277 52.9472Z" fill="#57C3B6"/>
<path d="M64.8791 79.4225L56.4947 71.0379C55.9635 70.5069 55.6711 69.8007 55.6711 69.0496V65.2062H58.483C59.0514 65.2062 59.6165 65.1348 60.1628 64.9943C60.8444 64.8189 61.2547 64.1241 61.0794 63.4424C60.904 62.7608 60.2095 62.3505 59.5275 62.5258C59.1886 62.613 58.8373 62.6572 58.483 62.6572H28.5167C26.2151 62.6572 24.3427 60.7846 24.3427 58.4832V28.5169C24.3427 28.1626 24.3869 27.8112 24.4741 27.4726C24.6496 26.791 24.2393 26.0962 23.5577 25.9207C22.876 25.7452 22.1812 26.1555 22.0058 26.8371C21.8651 27.3832 21.7939 27.9484 21.7939 28.5169V31.3288H10.512C9.97862 29.7472 8.48213 28.6046 6.72276 28.6046C4.51786 28.6046 2.72418 30.3983 2.72418 32.6032C2.72418 34.8081 4.51803 36.6018 6.72276 36.6018C8.48213 36.6018 9.97845 35.4592 10.512 33.8776H21.7938V36.7773H16.2575C15.5537 36.7773 14.9831 37.3479 14.9831 38.0517C14.9831 38.7555 15.5537 39.3261 16.2575 39.3261H21.7938V42.2257H1.27441C0.570595 42.2257 0 42.7963 0 43.5001C0 44.2039 0.570595 44.7745 1.27441 44.7745H21.7938V47.674H16.2575C15.5537 47.674 14.9831 48.2446 14.9831 48.9484C14.9831 49.6522 15.5537 50.2228 16.2575 50.2228H21.7938V53.1225H17.9501C16.5182 53.1225 15.1719 53.6801 14.1595 54.6926L5.778 63.0742C5.23187 62.8021 4.62644 62.6573 3.99842 62.6573C2.93029 62.6573 1.92623 63.0733 1.17093 63.8284C0.415967 64.5837 0 65.588 0 66.6559C0 67.7239 0.415967 68.7281 1.17127 69.4834C1.9264 70.2387 2.93063 70.6545 3.99876 70.6545C5.06688 70.6545 6.07094 70.2386 6.82624 69.4834C7.58154 68.7281 7.99751 67.7241 7.99751 66.6559C7.99751 66.0279 7.85274 65.4225 7.58069 64.8763L15.9622 56.4948C16.4932 55.9638 17.1994 55.6712 17.9506 55.6712H21.7943V58.4831C21.7943 62.1901 24.8102 65.2058 28.517 65.2058H31.3289V76.4876C29.7473 77.021 28.6047 78.5175 28.6047 80.2768C28.6047 82.4817 30.3986 84.2754 32.6033 84.2754C34.808 84.2754 36.6019 82.4815 36.6019 80.2768C36.6019 78.5175 35.4593 77.0211 33.8777 76.4876V65.2058H36.7772V70.742C36.7772 71.4458 37.3478 72.0164 38.0516 72.0164C38.7555 72.0164 39.326 71.4458 39.326 70.742V65.2058H42.2254V85.7255C42.2254 86.4293 42.796 86.9999 43.4998 86.9999C44.2036 86.9999 44.7742 86.4293 44.7742 85.7255V65.2062H47.6738V70.7424C47.6738 71.4462 48.2444 72.0168 48.9482 72.0168C49.652 72.0168 50.2226 71.4462 50.2226 70.7424V65.2062H53.1221V69.0496C53.1221 70.4815 53.6798 71.8278 54.6924 72.8402L63.0768 81.2246C62.3361 82.7201 62.5844 84.5848 63.8282 85.8287C64.6076 86.6083 65.6317 86.9979 66.6557 86.9979C67.6796 86.9979 68.7037 86.6083 69.4832 85.8287C71.0422 84.2696 71.0422 81.7329 69.4832 80.1738C68.2395 78.93 66.3746 78.6818 64.8791 79.4225ZM6.72276 34.053C5.92328 34.053 5.27299 33.4025 5.27299 32.6032C5.27299 31.8037 5.92345 31.1534 6.72276 31.1534C7.52207 31.1534 8.17253 31.8039 8.17253 32.6032C8.1727 33.4027 7.52224 34.053 6.72276 34.053ZM5.02372 67.6811C4.74981 67.955 4.38584 68.1057 3.99859 68.1057C3.61133 68.1057 3.24736 67.955 2.97345 67.6811C2.69954 67.4072 2.54882 67.0432 2.54882 66.6559C2.54882 66.2687 2.69954 65.9047 2.97345 65.6308C3.24736 65.3569 3.61133 65.2062 3.99859 65.2062C4.38584 65.2062 4.74981 65.3569 5.02372 65.6308C5.29763 65.9047 5.44835 66.2687 5.44835 66.6559C5.44835 67.0432 5.29763 67.4073 5.02372 67.6811ZM32.6029 81.7269C31.8035 81.7269 31.1532 81.0765 31.1532 80.2772C31.1532 79.4779 31.8036 78.8274 32.6029 78.8274C33.4023 78.8274 34.0527 79.4779 34.0527 80.2772C34.0527 81.0765 33.4024 81.7269 32.6029 81.7269ZM67.681 84.0265C67.1156 84.5918 66.1959 84.5916 65.6305 84.0265C65.0652 83.4611 65.0652 82.5414 65.6305 81.9762C65.9133 81.6936 66.2846 81.5523 66.6558 81.5523C67.0271 81.5523 67.3984 81.6936 67.681 81.9762C68.2461 82.5414 68.2461 83.4611 67.681 84.0265Z" fill="#57C3B6"/>
<path d="M33.0314 53.0317C33.0314 53.0327 33.0314 53.0337 33.0314 53.0347C33.0314 55.9907 35.6653 58.3956 38.903 58.3956C40.7637 58.3956 42.4236 57.6005 43.5001 56.3638C44.5765 57.6005 46.2365 58.3956 48.0971 58.3956C51.213 58.3956 53.7684 56.1679 53.9563 53.3656C55.8487 52.2676 57.0333 50.3442 57.0333 48.2674C57.0333 46.7398 56.382 45.2826 55.261 44.1812C56.3818 43.0797 57.0333 41.6223 57.0333 40.0949C57.0333 37.3694 55.0398 35.0606 52.3106 34.3104C52.3914 33.9772 52.4362 33.6345 52.4362 33.2843C52.4362 30.7039 50.1458 28.6045 47.3309 28.6045C45.8061 28.6045 44.4363 29.2211 43.5001 30.1958C42.5638 29.2211 41.1939 28.6045 39.6692 28.6045C36.8541 28.6045 34.5639 30.7039 34.5639 33.2843C34.5639 33.6345 34.6088 33.9772 34.6895 34.3104C31.9604 35.0605 29.9669 37.3692 29.9669 40.0949C29.9669 41.4269 30.4382 42.6837 31.3091 43.7215C30.4576 44.8238 29.9669 46.1619 29.9669 47.5866C29.9665 49.7534 31.1244 51.7767 33.0314 53.0317ZM36.5725 36.6023C36.5839 36.6027 36.5953 36.6042 36.6065 36.6042C36.8974 36.6042 37.1899 36.5052 37.4293 36.3024C37.9178 35.8888 38.0159 35.1871 37.6879 34.6591C37.6782 34.6435 37.6694 34.6275 37.6592 34.6124C37.6539 34.6048 37.6476 34.5974 37.6422 34.5898C37.6225 34.5621 37.6023 34.5349 37.5803 34.5087C37.5797 34.5079 37.5792 34.507 37.5785 34.5064C37.3659 34.2551 37.1122 33.8391 37.1122 33.2841C37.1122 32.1091 38.2592 31.1531 39.6687 31.1531C41.0782 31.1531 42.2251 32.1091 42.2251 33.2841C42.2251 33.9879 42.7957 34.5585 43.4996 34.5585C44.2034 34.5585 44.774 33.9879 44.774 33.2841C44.774 32.1091 45.9209 31.1531 47.3304 31.1531C48.7399 31.1531 49.8869 32.1091 49.8869 33.2841C49.8869 33.5981 49.8047 33.8659 49.6957 34.0862C48.9708 34.1546 48.2698 34.3298 47.6042 34.6105C46.9556 34.8839 46.6516 35.6314 46.925 36.28C47.1984 36.9284 47.9459 37.2328 48.5945 36.9592C49.1454 36.7269 49.738 36.6074 50.3562 36.6027C50.3685 36.603 50.3805 36.6042 50.3927 36.6042C50.4041 36.6042 50.4153 36.6027 50.4267 36.6023C52.6668 36.617 54.4839 38.1777 54.4839 40.0946C54.4839 41.2995 53.7509 42.4057 52.5229 43.0539C52.1049 43.2745 51.8432 43.7083 51.8432 44.181C51.8432 44.6537 52.1049 45.0875 52.5229 45.3081C53.7509 45.9562 54.4839 47.0625 54.4839 48.2674C54.4839 49.1658 54.0664 50.0227 53.3613 50.6635C52.6913 49.4229 51.5071 48.4353 50.0109 47.9653C49.3397 47.7544 48.6242 48.1278 48.4132 48.7991C48.2021 49.4706 48.5756 50.186 49.247 50.3969C50.5462 50.8052 51.4192 51.8653 51.4192 53.0349C51.4192 54.5854 49.9287 55.8469 48.0964 55.8469C46.2643 55.8469 44.7738 54.5854 44.7738 53.0349V44.8622C44.7738 43.3117 46.2643 42.0504 48.0964 42.0504C48.8002 42.0504 49.3708 41.4798 49.3708 40.776C49.3708 40.0721 48.8002 39.5015 48.0964 39.5015C46.8638 39.5015 45.7192 39.8509 44.7738 40.4458V38.8179C44.7738 38.1141 44.2032 37.5435 43.4994 37.5435C42.7956 37.5435 42.225 38.1141 42.225 38.8179V45.893C41.7961 45.6238 41.3258 45.401 40.817 45.2411C40.1451 45.0301 39.4301 45.4036 39.2192 46.0748C39.0082 46.7463 39.3815 47.4617 40.0529 47.6727C41.3521 48.081 42.225 49.1412 42.225 50.3106V53.0347C42.225 54.5853 40.7344 55.8468 38.9023 55.8468C37.0701 55.8468 35.5795 54.5853 35.5795 53.0347C35.5795 52.3702 35.8613 51.7241 36.3727 51.2157C36.8719 50.7196 36.8743 49.9126 36.3782 49.4134C35.882 48.9142 35.0752 48.9118 34.576 49.4079C34.2706 49.7116 34.0078 50.0433 33.7892 50.3959C32.9845 49.6346 32.5147 48.6331 32.5147 47.5862C32.5147 45.6981 33.9965 44.0393 36.1183 43.5525C36.8043 43.3951 37.2329 42.7114 37.0755 42.0254C36.9182 41.3392 36.2342 40.9109 35.5484 41.0682C34.6942 41.2641 33.9078 41.5912 33.2105 42.0206C32.7583 41.4527 32.5148 40.7877 32.5148 40.0946C32.5153 38.1777 34.3325 36.6171 36.5725 36.6023Z" fill="#071C33"/>
</g>
<defs>
<clipPath id="clip0">
<rect width="87" height="87" fill="white"/>
</clipPath>
</defs>
</svg>
