<svg width="126" height="25" viewBox="0 0 126 25" fill="none" xmlns="http://www.w3.org/2000/svg">
<path d="M23.7261 10.9468L22.2339 12.4261L14.7731 5.02967L16.2653 3.5504L23.7261 10.9468Z" fill="#071C33"/>
<path d="M16.2651 21.3018L14.773 19.8225L23.7259 10.9468L25.2181 12.4261L16.2651 21.3018Z" fill="#071C33"/>
<path d="M16.2651 18.3433L14.773 19.8225L7.31219 12.4262L8.80434 10.9469L16.2651 18.3433Z" fill="#071C33"/>
<path d="M10.4453 5.17773L8.95315 6.65701L16.4139 14.0534L17.9061 12.5741L10.4453 5.17773Z" fill="#071C33"/>
<path d="M0 12.5742L1.49216 14.0535L10.4451 5.17784L8.95295 3.69856L0 12.5742Z" fill="#071C33"/>
<path d="M2.98486 12.5742L1.4927 14.0535L8.9535 21.4499L10.4457 19.9706L2.98486 12.5742Z" fill="#071C33"/>
<path d="M32.1543 7.18481V9.07443H35.5217V18.2076H37.6184V9.07443H40.9858V7.18481H32.1543Z" fill="#071C33"/>
<path d="M42.356 7.18481V18.2076H47.423C49.3291 18.2076 50.711 17.0581 50.711 15.2314C50.711 13.893 49.9168 13.0741 48.8367 12.7749V12.586C49.9168 12.2868 50.711 11.4679 50.711 10.1452C50.711 8.25559 49.3449 7.18481 47.423 7.18481H42.356ZM44.4527 9.07443H47.2165C48.106 9.07443 48.7096 9.49959 48.7096 10.3972C48.7096 11.2947 48.106 11.7356 47.2165 11.7356H44.4527V9.07443ZM44.4527 13.6253H47.2165C48.106 13.6253 48.7096 14.0819 48.7096 14.9795C48.7096 15.877 48.106 16.318 47.2165 16.318H44.4527V13.6253Z" fill="#071C33"/>
<path d="M56.2268 6.96436C54.0666 6.96436 52.367 8.19261 52.367 10.161C52.367 12.1608 53.733 12.9481 56.0362 13.452L56.1791 13.4835C57.6405 13.7985 58.4664 14.1134 58.4664 15.074C58.4664 15.8928 57.8311 16.6014 56.4809 16.6014C54.7972 16.6014 54.0189 15.6881 54.0189 14.3339V14.0504H51.954V14.3968C51.954 16.9793 53.7012 18.428 56.4174 18.428C58.7841 18.428 60.5313 17.184 60.5313 14.9637C60.5313 12.9639 59.1812 12.1608 56.8939 11.6569L56.751 11.6254C55.4167 11.3262 54.4319 11.1373 54.4319 10.098C54.4319 9.34212 55.1149 8.79098 56.2268 8.79098C57.4975 8.79098 58.3076 9.34212 58.3076 10.6019V10.9326H60.3407V10.4601C60.3407 8.25559 58.6094 6.96436 56.2268 6.96436Z" fill="#071C33"/>
<path d="M66.9333 7.18481V18.2076H69.03V14.1764H71.5079C73.5569 14.1764 75.0659 12.7907 75.0659 10.6806C75.0659 8.57053 73.6046 7.18481 71.5079 7.18481H66.9333ZM69.03 9.07443H71.3014C72.3021 9.07443 72.9692 9.7043 72.9692 10.6806C72.9692 11.6569 72.3021 12.2868 71.3014 12.2868H69.03V9.07443Z" fill="#071C33"/>
<path d="M78.4338 10.3972H76.4642V18.2076H78.4656V13.7985C78.4656 12.6962 79.1962 12.1608 80.2128 12.1608H81.3882V10.3657H80.6258C79.6251 10.3657 78.958 10.6649 78.6562 11.5309H78.4338V10.3972Z" fill="#071C33"/>
<path d="M82.0136 14.3024C82.0136 16.7589 83.8244 18.428 86.1435 18.428C88.4625 18.428 90.2733 16.7589 90.2733 14.3024C90.2733 11.8459 88.4625 10.1767 86.1435 10.1767C83.8244 10.1767 82.0136 11.8459 82.0136 14.3024ZM84.015 14.3024C84.015 12.8852 84.8728 11.9403 86.1435 11.9403C87.4142 11.9403 88.2719 12.8852 88.2719 14.3024C88.2719 15.7196 87.4142 16.6644 86.1435 16.6644C84.8728 16.6644 84.015 15.7196 84.015 14.3024Z" fill="#071C33"/>
<path d="M99.7443 7.18481H97.743V11.4994H97.5524C97.1394 10.8381 96.4405 10.1767 95.0427 10.1767C93.0731 10.1767 91.4212 11.9089 91.4212 14.3024C91.4212 16.6959 93.0731 18.428 95.0427 18.428C96.4405 18.428 97.1394 17.7667 97.5524 17.1053H97.7747V18.2076H99.7443V7.18481ZM95.5828 11.9403C96.8217 11.9403 97.743 12.8222 97.743 14.3024C97.743 15.7826 96.8217 16.6644 95.5828 16.6644C94.3756 16.6644 93.4225 15.8141 93.4225 14.3024C93.4225 12.7907 94.3756 11.9403 95.5828 11.9403Z" fill="#071C33"/>
<path d="M109.504 18.2076V10.3972H107.503V14.4283C107.503 15.8141 106.82 16.6014 105.533 16.6014C104.39 16.6014 103.754 15.9558 103.754 14.8693V10.3972H101.753V15.0582C101.753 17.0896 103.071 18.3336 104.818 18.3336C106.264 18.3336 106.995 17.6722 107.312 16.9478H107.535V18.2076H109.504Z" fill="#071C33"/>
<path d="M111.12 14.3024C111.12 16.7274 112.931 18.428 115.218 18.428C117.426 18.428 118.808 17.2155 119.189 15.4361L117.22 14.948C117.013 15.9715 116.457 16.6644 115.25 16.6644C113.964 16.6644 113.122 15.7196 113.122 14.3024C113.122 12.8852 114.043 11.9403 115.25 11.9403C116.457 11.9403 117.077 12.7277 117.22 13.6725L119.189 13.1686C118.776 11.3892 117.41 10.1767 115.218 10.1767C112.931 10.1767 111.12 11.8774 111.12 14.3024Z" fill="#071C33"/>
<path d="M119.837 10.3972V12.0978H121.839V16.6959C121.839 17.5777 122.506 18.2076 123.395 18.2076H125.555V16.5069H124.285C123.999 16.5069 123.84 16.3495 123.84 16.0345V12.0978H126V10.3972H123.84V7.97215H121.839V10.3972H119.837Z" fill="#071C33"/>
</svg>
