<svg xmlns="http://www.w3.org/2000/svg" viewBox="0 0 220.93 61.82"><defs><style>.cls-1{fill:#091b32;}</style></defs><title>ACME Logo DarkBlue</title><g id="Layer_2" data-name="Layer 2"><g id="Layer_2-2" data-name="Layer 2"><path class="cls-1" d="M6.45,48.36H3.87A3.87,3.87,0,0,1,0,44.49V17.33a3.87,3.87,0,0,1,3.87-3.87H6A3.87,3.87,0,0,1,9.9,17.33V44.92A3.45,3.45,0,0,1,6.45,48.36Zm57.8,10V3.87A3.87,3.87,0,0,0,60.38,0H58.23a3.87,3.87,0,0,0-3.87,3.87V58a3.87,3.87,0,0,0,3.87,3.87H60.8A3.44,3.44,0,0,0,64.25,58.37ZM28,58.37V3.87A3.87,3.87,0,0,0,24.14,0H22a3.87,3.87,0,0,0-3.87,3.87V58A3.87,3.87,0,0,0,22,61.82h2.58A3.44,3.44,0,0,0,28,58.37ZM82.37,44.92V17.33a3.87,3.87,0,0,0-3.87-3.87H76.34a3.87,3.87,0,0,0-3.87,3.87V44.49a3.87,3.87,0,0,0,3.87,3.87h2.58A3.44,3.44,0,0,0,82.37,44.92ZM46.13,46V19.19a3.87,3.87,0,0,0-3.87-3.87H40.11a3.87,3.87,0,0,0-3.87,3.87v26.4a3.87,3.87,0,0,0,3.87,3.87h2.58A3.45,3.45,0,0,0,46.13,46Zm69.28-5.71h3a1,1,0,0,0,1-.64l1-2.15h7.3l1,2.12c.24.51.45.67.94.67h3a.47.47,0,0,0,.45-.7l-8.4-18.06a.54.54,0,0,0-.45-.29h-.27a.54.54,0,0,0-.46.29L115,39.6A.48.48,0,0,0,115.41,40.3Zm6.49-6.44,2-4.43h0l2,4.43Zm22.44-2.92A9.62,9.62,0,0,0,154,40.57a9.24,9.24,0,0,0,6.53-2.6.55.55,0,0,0,0-.73L158.48,35a.54.54,0,0,0-.7,0,5.66,5.66,0,0,1-3.59,1.29,5.32,5.32,0,0,1-5.29-5.45,5.35,5.35,0,0,1,5.26-5.53,5.46,5.46,0,0,1,3.62,1.37.47.47,0,0,0,.67,0l2.1-2.17a.51.51,0,0,0,0-.76,9,9,0,0,0-6.5-2.49A9.66,9.66,0,0,0,144.34,30.94Zm29,8.77a.49.49,0,0,0,.51.59H177a.53.53,0,0,0,.51-.43l1.18-8.29h.05l4.54,8.69a.56.56,0,0,0,.45.3h.49a.61.61,0,0,0,.45-.3l4.51-8.69h0l1.21,8.29a.55.55,0,0,0,.51.43h3.17a.49.49,0,0,0,.51-.59l-3-18a.52.52,0,0,0-.49-.43h-.43a.59.59,0,0,0-.45.27L184,33.11H184l-6.23-11.59a.59.59,0,0,0-.46-.27h-.42a.52.52,0,0,0-.49.43Zm35.48.08a.51.51,0,0,0,.51.51h11.11a.51.51,0,0,0,.51-.51V36.87a.51.51,0,0,0-.51-.51H213V32.73h6.12a.51.51,0,0,0,.51-.51V29.3a.53.53,0,0,0-.51-.51H213V25.46h7.44a.51.51,0,0,0,.51-.51V22a.51.51,0,0,0-.51-.51H209.31a.51.51,0,0,0-.51.51Z"/></g></g></svg>
