<svg xmlns="http://www.w3.org/2000/svg" viewBox="0 0 82.37 61.82"><defs><style>.cls-1{fill:#091b32;}</style></defs><title>BarsOnly ACME Logo </title><g id="Layer_2" data-name="Layer 2"><g id="Layer_2-2" data-name="Layer 2"><path class="cls-1" d="M6.45,48.36H3.87A3.87,3.87,0,0,1,0,44.49V17.33a3.87,3.87,0,0,1,3.87-3.87H6A3.87,3.87,0,0,1,9.9,17.33V44.92A3.45,3.45,0,0,1,6.45,48.36Zm57.8,10V3.87A3.87,3.87,0,0,0,60.38,0H58.23a3.87,3.87,0,0,0-3.87,3.87V58a3.87,3.87,0,0,0,3.87,3.87H60.8A3.44,3.44,0,0,0,64.25,58.37ZM28,58.37V3.87A3.87,3.87,0,0,0,24.14,0H22a3.87,3.87,0,0,0-3.87,3.87V58A3.87,3.87,0,0,0,22,61.82h2.58A3.44,3.44,0,0,0,28,58.37ZM82.37,44.92V17.33a3.87,3.87,0,0,0-3.87-3.87H76.34a3.87,3.87,0,0,0-3.87,3.87V44.49a3.87,3.87,0,0,0,3.87,3.87h2.58A3.44,3.44,0,0,0,82.37,44.92ZM46.13,46V19.19a3.87,3.87,0,0,0-3.87-3.87H40.11a3.87,3.87,0,0,0-3.87,3.87v26.4a3.87,3.87,0,0,0,3.87,3.87h2.58A3.45,3.45,0,0,0,46.13,46Z"/></g></g></svg>
