<svg width="32" height="32" viewBox="0 0 32 32" fill="none" xmlns="http://www.w3.org/2000/svg">
<path d="M29.8661 0.533203H2.13387C0.957312 0.533203 0 1.49058 0 2.66708V20.2665C0 20.5609 0.238937 20.7998 0.533312 20.7998H31.4666C31.761 20.7998 31.9999 20.5609 31.9999 20.2665V2.66708C32 1.49058 31.0427 0.533203 29.8661 0.533203ZM30.9333 19.7332H1.06669V2.66708C1.06669 2.07827 1.54562 1.59989 2.13387 1.59989H29.8661C30.4544 1.59989 30.9333 2.07827 30.9333 2.66708V19.7332Z" fill="#214164"/>
<path d="M31.4667 19.7334H0.533312C0.238937 19.7334 0 19.9723 0 20.2667V22.9328C0 24.1094 0.957312 25.0667 2.13387 25.0667H29.8661C31.0427 25.0667 32 24.1094 32 22.9328V20.2667C32 19.9723 31.7611 19.7334 31.4667 19.7334ZM30.9333 22.9329C30.9333 23.5217 30.4544 24.0001 29.8661 24.0001H2.13387C1.54562 24.0001 1.06669 23.5217 1.06669 22.9329V20.8001H30.9334V22.9329H30.9333Z" fill="#214164"/>
<path d="M17.6 21.8667H14.4C14.1056 21.8667 13.8667 22.1056 13.8667 22.4C13.8667 22.6944 14.1056 22.9333 14.4 22.9333H17.6C17.8944 22.9333 18.1333 22.6944 18.1333 22.4C18.1333 22.1056 17.8944 21.8667 17.6 21.8667Z" fill="#214164"/>
<path d="M22.9334 28.2666H9.0668C8.18467 28.2666 7.4668 28.9845 7.4668 29.8666C7.4668 30.7487 8.18467 31.4666 9.0668 31.4666H22.9335C23.8156 31.4666 24.5335 30.7487 24.5335 29.8666C24.5335 28.9845 23.8155 28.2666 22.9334 28.2666ZM22.9334 30.3999H9.0668C8.77242 30.3999 8.53348 30.1605 8.53348 29.8666C8.53348 29.5727 8.77242 29.3333 9.0668 29.3333H22.9335C23.2279 29.3333 23.4668 29.5727 23.4668 29.8666C23.4668 30.1605 23.2279 30.3999 22.9334 30.3999Z" fill="#214164"/>
<path d="M21.8667 28.2666C20.0971 28.2666 19.2 27.0106 19.2 24.5333C19.2 24.2389 18.9611 24 18.6667 24H13.3334C13.039 24 12.8001 24.2389 12.8001 24.5333C12.8001 27.0106 11.903 28.2666 10.1334 28.2666C9.83904 28.2666 9.6001 28.5056 9.6001 28.7999C9.6001 29.0943 9.83904 29.3333 10.1334 29.3333H21.8667C22.1611 29.3333 22.4 29.0943 22.4 28.7999C22.4 28.5056 22.1611 28.2666 21.8667 28.2666ZM12.7312 28.2666C13.3878 27.5392 13.7744 26.4559 13.8523 25.0666H18.1483C18.2256 26.4559 18.6123 27.5392 19.2693 28.2666H12.7312Z" fill="#214164"/>
</svg>
