<svg width="32" height="32" viewBox="0 0 32 32" fill="none" xmlns="http://www.w3.org/2000/svg">
<path d="M17.0304 26.089C16.9488 26.0676 16.8614 26.0239 16.7712 25.9583L16.7707 25.9578C16.5984 25.8335 16.4843 25.6575 16.4662 25.4895C16.4603 25.4346 16.4608 25.3818 16.4672 25.3306C16.5158 24.9578 16.367 24.5935 16.0678 24.3562C15.7755 24.1242 15.3963 24.0607 15.0539 24.1892C14.6918 24.3242 14.343 24.569 13.9878 24.9364C13.5771 25.361 13.3542 25.8996 13.359 26.4516C13.3675 27.746 14.4294 28.7999 15.7243 28.7999C16.5291 28.7999 17.2694 28.3946 17.7067 27.7156C17.8912 27.4276 17.9254 27.081 17.8006 26.7626C17.6699 26.4314 17.3819 26.1791 17.0304 26.089ZM15.7243 27.7332C15.0128 27.7332 14.4299 27.1551 14.4246 26.4431C14.4224 26.1716 14.5392 25.8996 14.7536 25.6772C14.9926 25.4298 15.2182 25.2655 15.4091 25.1924C15.3915 25.3263 15.3899 25.4644 15.4048 25.6036C15.456 26.0746 15.7259 26.5183 16.1451 26.8218C16.3435 26.9658 16.5515 27.066 16.7638 27.1215C16.7888 27.1279 16.8011 27.1412 16.8064 27.1412C16.8064 27.1412 16.807 27.1412 16.8075 27.1412C16.568 27.5119 16.1638 27.7332 15.7243 27.7332Z" fill="#214164"/>
<path d="M24.8246 5.47413C24.6694 3.53067 23.4902 1.78293 21.7467 0.911467C20.5542 0.3152 19.2192 0 17.8859 0H14.1142C12.7808 0 11.4459 0.3152 10.2539 0.911467C8.51097 1.78293 7.33177 3.53067 7.17604 5.4736C6.6171 12.4587 6.6171 19.5419 7.17604 26.5269L7.19044 26.7093C7.3387 28.5552 8.3867 30.2059 9.9947 31.1243L10.2363 31.2624C11.0806 31.7445 12.0416 32 13.0139 32H18.9856C19.9579 32 20.919 31.7445 21.7632 31.2624L22.0054 31.1243C23.6134 30.2053 24.6619 28.5547 24.8096 26.7088L24.824 26.5264C25.3835 19.5419 25.3835 12.4581 24.8246 5.47413ZM23.7611 26.4411L23.7467 26.6235C23.6272 28.1179 22.7792 29.4544 21.4774 30.1979L21.2352 30.336C20.5515 30.7264 19.7739 30.9333 18.9862 30.9333H13.0139C12.2262 30.9333 11.4486 30.7264 10.7648 30.336L10.5232 30.1979C9.2219 29.4539 8.37337 28.1179 8.25337 26.6235L8.23897 26.4411C7.6843 19.5131 7.6843 12.4869 8.23897 5.55893C8.36484 3.98613 9.3195 2.57067 10.7307 1.8656C11.7755 1.34293 12.9451 1.06667 14.1142 1.06667H17.8859C19.0539 1.06667 20.2246 1.34293 21.2699 1.8656C22.6811 2.57067 23.6358 3.98613 23.7611 5.55893C24.3158 12.4869 24.3158 19.5131 23.7611 26.4411Z" fill="#214164"/>
</svg>
