<svg width="87" height="87" viewBox="0 0 87 87" fill="none" xmlns="http://www.w3.org/2000/svg">
<path d="M48.2684 61.7075L45.4447 65.3987L42.9632 68.6416L31.7594 83.2852L25.917 79.7205L35.271 62.9464L36.8608 60.0971L39.5577 55.261V55.2593L48.2684 61.7075Z" fill="#214164"/>
<path d="M32.7608 59.0666C41.2197 50.429 51.5088 36.4245 55.4182 27.9359C60.7734 16.3075 51.0577 1.27148 51.0577 1.27148C51.0577 1.27148 33.3161 3.66253 27.9608 15.291C24.0517 23.7795 20.0981 40.7019 19.0332 52.7445L32.7608 59.0666Z" fill="#EBEEF2"/>
<path d="M51.0575 1.27148C51.0575 1.27148 50.52 1.34404 49.6053 1.52468C51.2934 5.16095 55.7621 16.4507 51.3382 26.0571C47.4291 34.5456 37.6105 48.767 29.7009 57.6574L19.1719 52.8085L32.7606 59.0666C41.2196 50.429 51.5087 36.4245 55.4179 27.9359C60.7733 16.3075 51.0575 1.27148 51.0575 1.27148Z" fill="#D1D6DE"/>
<path d="M33.1362 8.75015L57.0241 19.7512C56.8797 10.2848 51.0574 1.27148 51.0574 1.27148C51.0574 1.27148 40.4237 2.70618 33.1362 8.75015Z" fill="#4688B0"/>
<path d="M51.0313 1.27522C51.026 1.27607 51.0187 1.27692 51.0118 1.27811C51.0079 1.27862 51.0039 1.2793 50.9995 1.27981C50.9909 1.28117 50.9803 1.2827 50.9698 1.28423C50.964 1.28508 50.9581 1.28593 50.9518 1.28695C50.9418 1.28848 50.9307 1.29018 50.9195 1.29188C50.9105 1.29324 50.9006 1.29476 50.8908 1.29629C50.8791 1.29799 50.8666 1.30003 50.8537 1.3019C50.842 1.30377 50.8293 1.30564 50.8167 1.30768C50.8028 1.30989 50.7886 1.3121 50.7737 1.31448C50.761 1.31652 50.7468 1.31872 50.7333 1.32093C50.7168 1.32365 50.7006 1.3262 50.683 1.32909C50.667 1.33164 50.6496 1.33453 50.6327 1.33742C50.6148 1.3403 50.5977 1.34319 50.5788 1.34625C50.5061 1.35849 50.4257 1.37225 50.3378 1.38771C50.328 1.38941 50.3173 1.39128 50.3072 1.39315C50.2714 1.39944 50.2347 1.40607 50.1965 1.41286C50.1852 1.4149 50.1733 1.41711 50.162 1.41915C50.1224 1.42629 50.0821 1.43359 50.0403 1.44141C50.0304 1.44328 50.0202 1.44515 50.0102 1.44702C49.9652 1.45552 49.919 1.46418 49.8712 1.47319C49.8631 1.47472 49.8547 1.47625 49.8466 1.47795C49.7919 1.48831 49.7359 1.49919 49.6782 1.51057C49.678 1.51057 49.6778 1.51057 49.6775 1.51074C49.6544 1.51533 49.6296 1.52026 49.606 1.52485C50.8328 4.16755 53.5269 10.8518 53.2104 17.9945L57.0246 19.7511C57.0246 19.7507 57.0246 19.7502 57.0246 19.7499C56.9047 11.9167 52.8976 4.39441 51.5188 2.03225C51.5164 2.02817 51.5141 2.02409 51.5117 2.02001C51.4361 1.89053 51.3683 1.77651 51.3098 1.67948C51.3093 1.67863 51.3088 1.67778 51.3083 1.67693C51.2927 1.6511 51.2782 1.62731 51.2641 1.60369C51.257 1.59197 51.2497 1.5799 51.2429 1.56869C51.2308 1.54898 51.2192 1.52994 51.2084 1.5121C51.2011 1.50004 51.1941 1.48899 51.1873 1.47795C51.1778 1.46231 51.1679 1.44634 51.1593 1.43258C51.146 1.41133 51.1338 1.39145 51.1231 1.37429C51.1164 1.36375 51.1113 1.35543 51.1057 1.34659C51.1008 1.33878 51.0955 1.33045 51.0915 1.32382C51.0869 1.31652 51.0826 1.30989 51.0791 1.30411C51.075 1.29782 51.0711 1.29137 51.0682 1.28712C51.0667 1.28491 51.0648 1.28185 51.0638 1.28015C51.0609 1.27556 51.0582 1.27148 51.0582 1.27148C51.0582 1.27148 51.0507 1.2725 51.0381 1.2742C51.0356 1.27454 51.0339 1.27471 51.0313 1.27522Z" fill="#64A6CE"/>
<path d="M40.2496 29.6643C42.9688 29.6643 45.1731 27.46 45.1731 24.7409C45.1731 22.0217 42.9688 19.8174 40.2496 19.8174C37.5305 19.8174 35.3262 22.0217 35.3262 24.7409C35.3262 27.46 37.5305 29.6643 40.2496 29.6643Z" fill="#4688B0"/>
<path d="M22.5417 61.4202L26.4174 48.3769C27.0358 47.0343 28.6255 46.447 29.9681 47.0654C31.3107 47.6838 31.8979 49.2734 31.2796 50.616L23.8874 62.0399C23.4176 62.7658 22.2954 62.2491 22.5417 61.4202Z" fill="#57C3B6"/>
<path d="M66.6876 21.1461C63.2601 20.0259 59.5737 21.8963 58.4536 25.3236L57.3536 28.689C56.2335 32.1164 58.1037 35.8028 61.5311 36.923C64.9584 38.0431 68.6449 36.1727 69.7651 32.7455L70.865 29.3801C71.9854 25.9528 70.115 22.2662 66.6876 21.1461Z" fill="#F9C295"/>
<path d="M71.3787 18.94L66.5504 17.3619C63.8084 16.4657 60.8592 17.9621 59.963 20.704L58.0737 26.4845L61.926 27.7434L61.9933 27.5377C62.4808 26.046 64.0852 25.2319 65.5769 25.7194L67.9134 26.4831C71.1421 27.5383 74.6153 25.7764 75.6705 22.5476L77.1584 17.9951L72.2169 18.9891C71.9381 19.0456 71.6492 19.0286 71.3787 18.94Z" fill="#214164"/>
<path d="M60.6255 43.2372C60.6255 44.3581 60.2781 45.4876 59.561 46.4579L50.9207 58.1271L41.6045 52.4952L50.8506 40.0079C52.6321 37.6018 56.0255 37.0969 58.4298 38.8767C59.8655 39.9396 60.6255 41.5772 60.6255 43.2372Z" fill="#57C3B6"/>
<path d="M58.4299 38.877C57.9695 38.5363 57.4727 38.2799 56.9581 38.104C58.0987 39.156 58.6997 40.6121 58.6997 42.0868C58.6997 43.2076 58.3524 44.3371 57.6353 45.3074L49.002 56.9673L50.9208 58.1274L59.5611 46.458C60.2781 45.4877 60.6255 44.3582 60.6255 43.2373C60.6255 41.5773 59.8656 39.9396 58.4299 38.877Z" fill="#2F9B8E"/>
<path d="M54.1243 45.9134L33.6947 43.6316C32.2391 43.49 31.1738 42.1952 31.3154 40.7396C31.4569 39.284 32.7517 38.2187 34.2073 38.3603L54.637 40.6421C56.0926 40.7836 57.1579 42.0785 57.0163 43.534C56.8746 44.9898 55.5799 46.0549 54.1243 45.9134Z" fill="#2F9B8E"/>
<path d="M59.845 63.5227L50.9206 58.127L41.6044 52.4951L39.5576 55.2588V55.2605L39.1425 56.005C37.8661 58.2935 38.617 61.1815 40.8467 62.5584L45.4446 65.3982L45.5078 65.4376L53.4072 70.3149L49.6423 83.8017L56.212 85.7252L61.3596 67.4127C61.796 65.9236 61.173 64.3253 59.845 63.5227Z" fill="#214164"/>
<path d="M36.7202 38.641L34.2073 38.3603C32.7517 38.2187 31.4569 39.284 31.3154 40.7396C31.1738 42.1952 32.2391 43.49 33.6947 43.6316L36.0048 43.8895L36.7202 38.641Z" fill="#F9C295"/>
<path d="M37.6561 30.3707C38.4934 30.7563 39.3729 30.9388 40.2394 30.9388C42.5856 30.9388 44.8344 29.6006 45.8784 27.3338C47.3078 24.2296 45.9455 20.5409 42.8413 19.1115C41.3378 18.4192 39.6543 18.3536 38.1012 18.9272C36.5482 19.5008 35.3115 20.6448 34.619 22.1486C33.9264 23.6523 33.861 25.3356 34.4347 26.8887C35.0083 28.4419 36.1525 29.6781 37.6561 30.3707ZM36.9345 23.2146C37.3421 22.3293 38.0702 21.6557 38.9845 21.3179C39.3965 21.1656 39.8241 21.0898 40.2508 21.0898C40.7706 21.0898 41.2888 21.2025 41.7752 21.4264C43.6027 22.2681 44.4048 24.4396 43.5631 26.2673C42.7215 28.0951 40.5497 28.8973 38.7223 28.0553C37.8369 27.6476 37.1633 26.9195 36.8257 26.0053C36.4881 25.0911 36.5266 24.0999 36.9345 23.2146Z" fill="#071C33"/>
<path d="M27.8763 58.2213L32.2277 60.2251C32.4003 60.3046 32.5816 60.3422 32.7599 60.3422C33.242 60.3422 33.7035 60.0671 33.9183 59.6005C34.2126 58.961 33.9331 58.2042 33.2938 57.9097L29.2752 56.0592L32.349 51.3087C32.382 51.2579 32.4112 51.2045 32.4367 51.1495C32.8782 50.1909 32.9198 49.1178 32.5541 48.128C32.1884 47.138 31.4593 46.3497 30.5007 45.9082C29.542 45.4668 28.4689 45.4251 27.4792 45.7908C26.4892 46.1565 25.7009 46.8857 25.2595 47.8442C25.2342 47.8993 25.2127 47.9562 25.1954 48.0143L23.584 53.4374L20.3851 51.9644C21.3321 42.3282 24.0566 29.7086 27.1083 20.9118C27.3389 20.2469 26.9869 19.5208 26.3219 19.29C25.6566 19.0592 24.9307 19.4115 24.7001 20.0764C21.4927 29.3223 18.64 42.7099 17.7628 52.6323C17.7154 53.1687 18.0102 53.677 18.4991 53.9021L22.8504 55.9059L21.3195 61.0578C21.0303 62.0313 21.49 63.0464 22.4125 63.4712C22.69 63.599 22.9806 63.6602 23.2667 63.6602C23.9317 63.6602 24.5711 63.329 24.9568 62.7327L27.8763 58.2213ZM27.6087 48.8417C27.7701 48.5355 28.0352 48.3028 28.3625 48.1819C28.7138 48.052 29.0946 48.067 29.4348 48.2237C29.7749 48.3803 30.0336 48.66 30.1634 49.0113C30.2842 49.3384 30.2798 49.6912 30.152 50.0128L24.8059 58.2747L27.6087 48.8417Z" fill="#071C33"/>
<path d="M78.1099 17.149C77.8088 16.8103 77.3501 16.657 76.9061 16.7464L71.9646 17.7405C71.9018 17.7532 71.8357 17.7493 71.7745 17.7293L66.9463 16.1505C63.5393 15.0379 59.8631 16.9036 58.7511 20.3084L58.2175 21.9402C58.27 21.2724 58.2948 20.5915 58.2894 19.8974C58.2957 19.8428 58.2986 19.7876 58.2979 19.732C58.1497 10.0118 52.3732 0.960671 52.1275 0.580204C51.8702 0.182065 51.4143 -0.0364615 50.9455 0.00500073C50.9258 0.0067 50.9062 0.00602029 50.8865 0.00873913C50.8796 0.00958876 50.865 0.0117978 50.8463 0.0143467C50.0131 0.131087 39.6555 1.68745 32.3223 7.76931C32.2793 7.805 32.2392 7.84323 32.2018 7.8835C29.7931 9.91158 27.97 12.2234 26.8 14.7635L26.591 15.2242C26.3018 15.8658 26.5876 16.6205 27.2293 16.9097C27.8713 17.1987 28.6256 16.9131 28.9148 16.2714L29.1177 15.8239C30.1228 13.6417 31.6122 11.8015 33.3506 10.2523L55.7456 20.5658C55.6968 22.8923 55.265 25.22 54.2594 27.4037C52.8699 30.4221 50.5954 34.2764 47.6669 38.5815L34.3482 37.094C34.3421 37.0933 34.3361 37.0926 34.3302 37.0921C32.1764 36.8819 30.2557 38.4638 30.0463 40.6166C30.0439 40.6416 30.0429 40.6664 30.0411 40.6912C30.0378 40.7323 30.0341 40.7732 30.0322 40.8142C30.0314 40.8317 30.0315 40.849 30.031 40.8664C30.0293 40.916 30.0278 40.9656 30.028 41.0149C30.028 41.0201 30.0283 41.0252 30.0283 41.0305C30.0344 41.9265 30.3442 42.7865 30.9214 43.4882C30.9383 43.5086 30.9571 43.5264 30.9743 43.5465C31.0241 43.6047 31.0756 43.6615 31.1288 43.7167C31.1682 43.7577 31.2085 43.7974 31.2492 43.8365C31.2977 43.8826 31.3471 43.9274 31.3977 43.9711C31.4463 44.0129 31.4958 44.0533 31.5463 44.0928C31.5944 44.1303 31.6435 44.1667 31.6934 44.202C31.747 44.2398 31.801 44.2761 31.8562 44.3111C31.9121 44.3466 31.969 44.3806 32.0268 44.4134C32.0759 44.4411 32.1255 44.4676 32.1757 44.4931C32.2482 44.5302 32.322 44.5653 32.3973 44.5978C32.4326 44.6131 32.4685 44.6274 32.5043 44.6415C32.5964 44.678 32.6899 44.7123 32.7855 44.7421C32.8046 44.748 32.8241 44.7528 32.8433 44.7584C32.9502 44.7898 33.0586 44.8177 33.1694 44.8401C33.1777 44.8418 33.1861 44.843 33.1944 44.8445C33.3145 44.868 33.4364 44.8867 33.5606 44.8991L44.72 46.1453L40.5845 51.7307C40.5828 51.7327 40.5811 51.7346 40.5794 51.7368L38.5328 54.5005C38.5289 54.5059 38.5262 54.512 38.5223 54.5175C38.4886 54.5642 38.4581 54.6133 38.4309 54.6645L38.4304 54.6653C38.4285 54.669 38.4258 54.6723 38.4237 54.6758L38.0286 55.3843C38.0251 55.3909 38.0219 55.3975 38.0181 55.4041L24.8027 79.0991C24.4693 79.6969 24.6676 80.4512 25.252 80.8077L31.0941 84.3727C31.3006 84.4987 31.53 84.5594 31.7571 84.5594C32.1422 84.5594 32.521 84.385 32.7701 84.0593L43.4313 70.127C43.859 69.5679 43.7526 68.7681 43.1938 68.3404C42.635 67.9128 41.835 68.019 41.4071 68.5779L31.4428 81.5994L27.6259 79.2701L36.3836 63.5668L37.819 60.9937C38.3111 62.0525 39.1089 62.9832 40.1764 63.6426L51.9214 70.8954L48.4143 83.4588C48.2267 84.1307 48.6143 84.8286 49.2836 85.0245L55.8533 86.9479C55.9706 86.9822 56.0912 86.9992 56.2114 86.9992C56.4255 86.9992 56.6384 86.9452 56.8291 86.8395C57.1268 86.6745 57.3461 86.3973 57.4382 86.0697L62.5821 67.7706C63.1804 65.7284 62.3259 63.5331 60.5041 62.4318L52.7777 57.7607L60.5848 47.2155C61.4451 46.0515 61.8998 44.6756 61.8998 43.2362C61.8998 41.1226 60.8862 39.1097 59.188 37.8514C56.763 36.0573 53.5133 36.15 51.2074 37.8648C53.0701 35.0095 54.6175 32.3821 55.7809 30.0993C55.5026 33.6091 57.6439 36.9925 61.1337 38.1327C61.918 38.3902 62.7345 38.5209 63.5599 38.5209C66.945 38.5209 69.9252 36.3587 70.9753 33.1413L72.0763 29.7751C72.0765 29.7749 72.0765 29.7747 72.0766 29.7744C72.3116 29.0542 72.4375 28.3178 72.4586 27.5745C74.5348 26.7814 76.1839 25.082 76.882 22.9433L78.3689 18.3909C78.5097 17.9607 78.4112 17.4876 78.1099 17.149ZM35.6065 8.48505C41.1845 4.62685 48.0793 3.09988 50.4128 2.67116C51.1198 3.8875 52.5759 6.57133 53.7892 9.95814C53.7942 9.97191 53.7991 9.98567 53.804 9.99944C53.9243 10.3362 54.0419 10.6802 54.1563 11.03C54.17 11.072 54.1835 11.1143 54.1972 11.1565C54.2387 11.2849 54.2796 11.4142 54.3202 11.5442C54.3361 11.5949 54.3519 11.6454 54.3675 11.6962C54.4178 11.86 54.4674 12.0248 54.516 12.191C54.531 12.242 54.5452 12.2936 54.5598 12.3448C54.5933 12.4615 54.6266 12.5786 54.6591 12.6964C54.6812 12.7759 54.7028 12.8559 54.7243 12.9359C54.7488 13.027 54.7729 13.1184 54.7967 13.21C54.8193 13.297 54.8423 13.384 54.8642 13.4716C54.8881 13.5667 54.9111 13.6624 54.9344 13.7581C54.9726 13.9154 55.0096 14.0734 55.0458 14.2323C55.0618 14.3022 55.0776 14.3722 55.0931 14.4422C55.1167 14.5497 55.1398 14.6578 55.1626 14.7661C55.1755 14.8279 55.1881 14.8899 55.2006 14.952C55.2781 15.334 55.349 15.7192 55.412 16.1075C55.4202 16.1579 55.4285 16.2082 55.4365 16.2587C55.4557 16.3807 55.4741 16.5031 55.4916 16.6256C55.4985 16.6742 55.5052 16.7229 55.5118 16.7717C55.5544 17.0808 55.5918 17.3914 55.6238 17.7031L35.6065 8.48505ZM34.9093 42.4851L33.8354 42.3651C33.8294 42.3644 33.8233 42.3638 33.8173 42.3633C33.7704 42.3587 33.7244 42.3519 33.6792 42.3427C33.6739 42.3417 33.6688 42.34 33.6634 42.3388C33.085 42.2156 32.6535 41.7332 32.5862 41.1552C32.5857 41.1501 32.5845 41.1451 32.584 41.1399C32.5804 41.1063 32.5794 41.0723 32.5784 41.0382C32.5781 41.0259 32.5767 41.0139 32.5765 41.0016C32.5764 40.969 32.5789 40.936 32.5811 40.9031C32.582 40.8896 32.5818 40.8766 32.583 40.8631C32.5838 40.8543 32.5857 40.8458 32.5867 40.837C32.591 40.8008 32.5957 40.7646 32.6027 40.7294C32.6064 40.71 32.6121 40.6913 32.6166 40.6723C32.6224 40.6482 32.6279 40.6239 32.6348 40.6003C32.6413 40.5788 32.6493 40.5581 32.6567 40.537C32.6639 40.517 32.6705 40.4966 32.6785 40.4771C32.6877 40.4548 32.698 40.4332 32.7082 40.4116C32.7164 40.3943 32.724 40.377 32.7329 40.3602C32.7446 40.3377 32.7575 40.3161 32.7704 40.2946C32.7793 40.2798 32.7879 40.2647 32.7973 40.2502C32.8115 40.2281 32.827 40.2069 32.8426 40.1856C32.852 40.1727 32.8613 40.1598 32.871 40.1474C32.888 40.126 32.9057 40.1053 32.9239 40.0849C32.9336 40.074 32.9432 40.063 32.9533 40.0524C32.9726 40.032 32.9927 40.0125 33.0132 39.9933C33.0234 39.9839 33.0335 39.9744 33.0438 39.9654C33.0652 39.9466 33.0873 39.9284 33.1099 39.9109C33.1205 39.9027 33.1312 39.8947 33.1419 39.8869C33.1653 39.8699 33.1891 39.8534 33.2136 39.8378C33.2246 39.8308 33.2359 39.824 33.2471 39.8172C33.272 39.8023 33.2974 39.788 33.3232 39.7748C33.3351 39.7686 33.3472 39.763 33.3592 39.7573C33.3852 39.7448 33.4114 39.7328 33.4382 39.7221C33.4513 39.7168 33.4647 39.7122 33.478 39.7073C33.5045 39.6974 33.5312 39.6881 33.5584 39.6799C33.573 39.6755 33.5879 39.6721 33.6029 39.6682C33.6294 39.6612 33.6559 39.6543 33.6829 39.649C33.6999 39.6456 33.7173 39.6434 33.7346 39.6407C33.7601 39.6366 33.7854 39.6324 33.8114 39.6298C33.8325 39.6278 33.8539 39.6273 33.8751 39.6261C33.8977 39.6249 33.9201 39.623 33.9431 39.6228C33.9868 39.6227 34.0308 39.6242 34.0751 39.6283L34.5212 39.6781L35.2799 39.7629L34.9093 42.4851ZM59.1849 64.6137C59.1851 64.6137 59.1851 64.6137 59.1853 64.6139C60.0184 65.1173 60.4094 66.1211 60.1321 67.0679L55.333 84.1404L51.2075 82.9325L54.6341 70.6578C54.7867 70.111 54.5593 69.529 54.0762 69.2308L41.5157 61.4746C39.8652 60.4552 39.3109 58.3316 40.2503 56.6358L40.637 55.9426L41.9371 54.187L46.2849 56.8149L59.1849 64.6137ZM57.6712 39.9005C58.7387 40.6913 59.3509 41.9075 59.3509 43.2369C59.3509 44.1268 59.0689 44.9789 58.5356 45.7003L50.587 56.4366L47.732 54.711L43.4614 52.1291L47.6496 46.4726L53.9824 47.1798C53.9884 47.1805 53.9943 47.1812 54.0004 47.1817C54.1299 47.1943 54.2589 47.2006 54.3872 47.2006C55.2929 47.2006 56.1635 46.8898 56.872 46.3068C57.6812 45.6412 58.1827 44.7001 58.2841 43.6574C58.3856 42.6146 58.0748 41.5947 57.4092 40.7857C56.7456 39.979 55.8085 39.4782 54.7695 39.3746L53.9561 39.2837C55.1796 38.8984 56.5643 39.0816 57.6712 39.9005ZM54.4949 41.9087C54.5009 41.9094 54.5068 41.9101 54.5129 41.9106C55.2667 41.9838 55.8204 42.6569 55.7471 43.4107C55.7116 43.7759 55.5361 44.1053 55.2526 44.3383C54.9714 44.5699 54.6171 44.6783 54.2547 44.6455L37.4433 42.768L37.8142 40.0456L50.5246 41.4652C50.5292 41.4659 50.5336 41.466 50.5382 41.4667L54.4949 41.9087ZM69.654 28.983L68.5527 32.35C67.8454 34.5165 65.8391 35.9723 63.56 35.9723C63.0051 35.9723 62.4562 35.8844 61.927 35.7108C59.173 34.811 57.6644 31.8386 58.564 29.085L58.8889 28.0906L61.5292 28.954C61.5882 28.9733 61.6477 28.9864 61.707 28.997C61.7196 28.9992 61.7323 29.0014 61.7449 29.0032C61.8033 29.0117 61.8616 29.0167 61.9196 29.017C61.9214 29.017 61.9235 29.0175 61.9255 29.0175C61.9304 29.0175 61.9354 29.0165 61.9403 29.0163C61.9962 29.0156 62.0518 29.0111 62.1065 29.0032C62.1151 29.0021 62.124 29.0012 62.1325 28.9998C62.1903 28.9903 62.247 28.9766 62.3026 28.9592C62.3126 28.9562 62.3223 28.9526 62.3321 28.9492C62.3882 28.9302 62.4434 28.9086 62.4963 28.8821C62.4965 28.8821 62.4965 28.8821 62.4966 28.8819C62.5495 28.8554 62.5996 28.8243 62.6484 28.7907C62.6579 28.7842 62.6672 28.7777 62.6764 28.771C62.7231 28.737 62.7678 28.7001 62.8098 28.6598C62.8158 28.654 62.8214 28.6478 62.8271 28.6418C62.865 28.6039 62.9006 28.5633 62.9335 28.5205C62.9395 28.5128 62.9458 28.5055 62.9515 28.4977C62.986 28.4508 63.0171 28.4009 63.0452 28.3487C63.0513 28.3373 63.0569 28.3257 63.0627 28.3144C63.0902 28.2595 63.1152 28.2031 63.1351 28.1432L63.2046 27.9332C63.2212 27.8822 63.2402 27.8328 63.2615 27.7849C63.2649 27.7774 63.269 27.7704 63.2724 27.7629C63.291 27.7222 63.3108 27.6821 63.3327 27.6437C63.3335 27.6421 63.3347 27.6406 63.3356 27.6391C63.6176 27.148 64.1454 26.8498 64.7043 26.8532C64.7086 26.8532 64.713 26.8528 64.7172 26.8528C64.7577 26.8533 64.7983 26.8567 64.8391 26.8606C64.8505 26.8617 64.8619 26.8618 64.8732 26.863C64.9086 26.8671 64.9441 26.8741 64.9796 26.8807C64.9958 26.8837 65.0121 26.8854 65.0282 26.889C65.0792 26.9002 65.13 26.9138 65.1805 26.9305L67.5173 27.6951C67.6609 27.742 67.806 27.7832 67.9518 27.8214C67.9761 27.8277 68.0004 27.8345 68.0247 27.8404C68.1686 27.8765 68.3132 27.9082 68.4587 27.9356C68.4767 27.939 68.4946 27.9419 68.5126 27.9451C68.8171 28 69.1241 28.0358 69.4319 28.052C69.4494 28.0528 69.4667 28.054 69.484 28.0549C69.6115 28.0607 69.7389 28.0644 69.8662 28.0634C69.8237 28.3728 69.7529 28.6799 69.654 28.983ZM74.4592 22.1526C73.927 23.7827 72.5534 25.0268 70.8735 25.3994C70.0266 25.5879 69.1401 25.544 68.3098 25.2725L65.9728 24.5077C65.8682 24.4735 65.7626 24.4448 65.6568 24.4191C65.6439 24.4161 65.6309 24.4125 65.618 24.4096C65.5132 24.3853 65.4078 24.3654 65.3023 24.3494C65.2938 24.3481 65.2855 24.3469 65.277 24.3457C64.4447 24.2249 63.5973 24.3612 62.8316 24.7493C62.7899 24.7704 62.7502 24.794 62.7096 24.8162C62.7012 24.8208 62.6929 24.8252 62.6846 24.83C62.2971 25.0463 61.9529 25.3192 61.6599 25.6383C61.6558 25.6428 61.6519 25.6472 61.6478 25.6516C61.5765 25.7301 61.508 25.811 61.4429 25.8948C61.4402 25.8983 61.4371 25.9019 61.4344 25.9055C61.3663 25.994 61.3004 26.0842 61.2397 26.1782L59.6852 25.67L59.6803 25.6683L61.1739 21.1003C61.8496 19.0312 64.0834 17.8977 66.1545 18.5735L70.982 20.1521C71.4603 20.3084 71.974 20.3387 72.4673 20.2394L75.2679 19.6761L74.4592 22.1526Z" fill="#071C33"/>
<path d="M22.5067 81.542H9.84233C9.13849 81.542 8.56787 82.1126 8.56787 82.8164C8.56787 83.5203 9.13849 84.0909 9.84233 84.0909H22.5067C23.2105 84.0909 23.7811 83.5203 23.7811 82.8164C23.7811 82.1126 23.2105 81.542 22.5067 81.542Z" fill="#071C33"/>
<path d="M22.5069 74.2261H13.6075C12.9036 74.2261 12.333 74.7967 12.333 75.5005C12.333 76.2044 12.9036 76.775 13.6075 76.775H22.5069C23.2107 76.775 23.7813 76.2044 23.7813 75.5005C23.7813 74.7967 23.2107 74.2261 22.5069 74.2261Z" fill="#071C33"/>
<path d="M22.5068 66.9102H18.7412C18.0374 66.9102 17.4668 67.4808 17.4668 68.1846C17.4668 68.8885 18.0374 69.4591 18.7412 69.4591H22.5068C23.2107 69.4591 23.7813 68.8885 23.7813 68.1846C23.7813 67.4808 23.2107 66.9102 22.5068 66.9102Z" fill="#071C33"/>
</svg>
