<svg width="44" height="34" viewBox="0 0 44 34" fill="none" xmlns="http://www.w3.org/2000/svg">
<path d="M2.98214 1.5H41.0179V0.5H2.98214V1.5ZM42.5 3V31H43.5V3H42.5ZM41.0179 32.5H2.98214V33.5H41.0179V32.5ZM1.5 31V3H0.5V31H1.5ZM2.98214 32.5C2.16779 32.5 1.5 31.8327 1.5 31H0.5C0.5 32.3765 1.60707 33.5 2.98214 33.5V32.5ZM42.5 31C42.5 31.8327 41.8322 32.5 41.0179 32.5V33.5C42.3929 33.5 43.5 32.3765 43.5 31H42.5ZM41.0179 1.5C41.8322 1.5 42.5 2.16733 42.5 3H43.5C43.5 1.62353 42.3929 0.5 41.0179 0.5V1.5ZM2.98214 0.5C1.60707 0.5 0.5 1.62353 0.5 3H1.5C1.5 2.16734 2.1678 1.5 2.98214 1.5V0.5ZM1 5L42.625 5V4L1 4L1 5Z" fill="#214164"/>
</svg>
